<svg width="300" height="218" viewBox="0 0 300 218" fill="none" xmlns="http://www.w3.org/2000/svg">
<g opacity="0.4">
<path opacity="0.4" d="M141.005 182.063C133.066 182.084 125.127 182.27 117.202 183.123C114.213 183.444 111.289 184.153 108.295 184.436C102.314 185.006 96.4364 186.068 90.4336 186.559C85.5982 186.954 80.7437 187.186 75.9246 187.687C71.4055 188.156 66.4009 188.049 61.9173 187.273C58.5982 186.698 55.2627 186.373 51.9982 185.452C48.3464 184.42 44.3809 183.681 40.5764 183.708C35.1518 183.747 29.8691 183.752 24.6764 185.575C22.8545 186.215 20.6236 187.267 19.2382 188.611C16.0691 191.684 15.6409 199.355 18.8045 202.544C24.1336 207.909 35.5036 210.016 42.9736 210.116C51.1582 210.225 59.1082 209.637 67.3036 209.291C74.9182 208.969 82.5164 208.511 90.1446 208.528C105.725 208.56 121.306 208.528 136.86 207.519C151.473 206.574 166.121 206.898 180.764 206.898C195.78 206.898 210.695 207.013 225.603 208.945C232.099 209.787 238.715 210.081 245.245 210.67C251.092 211.198 256.71 210.659 262.533 210.171C267.423 209.762 272.28 208.547 276.723 206.492C280.238 204.865 286.508 199.813 287.586 195.933C290.607 185.052 244.98 185.313 237.974 185.338C230.135 185.365 222.237 185.616 214.407 185.327C211.113 185.204 207.867 184.583 204.652 183.899C201.45 183.218 198.224 183.392 194.975 183.106C181.432 181.915 167.861 182.09 154.276 182.09C149.853 182.087 145.429 182.049 141.005 182.063Z" fill="#F1F2F2"/>
</g>
<path d="M243.507 140.269L244.347 159.712L241.887 192.774L238.205 193.036L233.735 163.007L227.55 137.599L243.507 140.269Z" fill="#3B455A"/>
<path d="M238.339 194.584L242.46 196.29L244.309 194.162L242.176 192.314L238.197 192.597L238.339 194.584Z" fill="#556362"/>
<path d="M217.454 133.388L216.646 148.084L219.044 191.785L222.728 191.97L228.251 163.309L233.122 131.876L217.454 133.388Z" fill="#3B455A"/>
<path d="M222.63 193.521L218.544 195.314L216.652 193.224L218.744 191.333L222.728 191.532L222.63 193.521Z" fill="#556362"/>
<path d="M238.882 90.0911L227.384 88.8594C227.384 88.8594 220.985 89.5433 216.646 104.722C214.23 113.166 213.496 126.473 213.319 136.618C213.592 138.065 215.168 144.403 221.839 143.327C233.296 141.479 239.394 139.634 244.383 140.558C248.632 141.482 248.274 135.634 247.805 131.173L246.112 117.368L238.882 90.0911Z" fill="white"/>
<path d="M236.659 75.7876C233.76 75.15 230.776 74.5777 227.877 75.15C227.242 75.2753 226.56 75.496 226.213 76.0438C226.08 76.2563 226.009 76.5016 225.943 76.7441C225.213 79.4636 224.283 83.4939 226.074 86.0009C226.415 86.4778 226.876 86.8593 227.367 87.1672C228.027 87.5787 228.755 87.8594 229.511 88.0065C229.355 88.6823 229.137 89.3445 228.862 89.9821C229.524 90.9822 232.62 91.1021 233.193 90.1429C233.225 89.3145 233.255 88.4834 233.288 87.655C233.664 87.5024 234.03 87.3171 234.371 87.0936C235.693 86.2244 236.566 84.9027 237.071 83.4231C237.622 81.8126 238.399 80.2839 238.901 78.6434C239.083 78.0466 239.228 77.3627 238.914 76.8231C238.579 76.2481 237.856 76.0519 237.207 75.9075C237.027 75.8694 236.844 75.8285 236.659 75.7876Z" fill="#AA6755"/>
<path d="M227.013 77.3434C228.444 76.4224 230.593 76.0273 231.941 76.1254C236.013 76.4197 237.504 79.409 237.723 83.1504C238.843 81.7253 240.949 79.9349 241.077 78.101C241.181 76.5995 240.973 74.553 240.133 73.2587C239.345 72.046 237.333 71.3811 236.135 70.6781C235.006 70.0159 233.877 69.3537 232.751 68.6916C232.516 68.5526 232.273 68.4136 232.006 68.3673C231.69 68.3128 231.365 68.3945 231.054 68.4736C228.387 69.163 225.72 69.8524 223.053 70.5391C222.54 70.6726 221.956 70.8634 221.768 71.3593C221.653 71.6591 221.722 71.9943 221.79 72.3104C222.093 73.6947 222.673 75.1089 222.818 76.5096C222.982 77.3244 223.467 81.4963 224.91 81.0167C225.333 80.3246 225.398 79.4717 225.728 78.7305C225.968 78.1773 226.432 77.7168 227.013 77.3434Z" fill="#4F4B47"/>
<path d="M227.381 88.8594L223.132 90.151L207.608 106.4L206.686 111.755L214.104 123.995L216.109 119.51L212.967 110.463L217.958 106.953L224.61 91.9986L227.381 88.8594Z" fill="#A9B4B9"/>
<path d="M246.695 84.306C246.412 84.1643 246.125 84.0254 245.836 83.8891C248.719 79.7062 250.279 74.5723 250.279 69.1305C250.279 56.0069 241.015 45.3276 229.628 45.3276C218.242 45.3276 208.977 56.0042 208.977 69.1305C208.977 74.5751 210.537 79.709 213.42 83.8891C212.973 84.0935 212.675 84.2434 212.545 84.3115C200.441 89.8623 192.625 101.991 192.625 115.229V123.478C192.625 127.029 195.515 129.917 199.069 129.917H260.185C263.738 129.917 266.629 127.029 266.629 123.478V115.229C266.632 101.989 258.807 89.8541 246.695 84.306Z" fill="white"/>
<path d="M245.73 86.3169C245.618 86.4531 245.512 86.5921 245.397 86.7256C241.222 91.617 235.623 94.3093 229.628 94.3093C223.636 94.3093 218.035 91.617 213.859 86.7256C213.745 86.5921 213.638 86.4531 213.526 86.3169C202.538 91.3336 194.855 102.43 194.855 115.232V123.48C194.855 125.805 196.743 127.691 199.069 127.691H260.185C262.511 127.691 264.398 125.805 264.398 123.48V115.232C264.401 102.43 256.715 91.3336 245.73 86.3169Z" fill="#6403FC"/>
<path d="M229.628 90.7042C234.466 90.7042 238.868 88.516 242.155 84.9408C245.776 81.0005 248.045 75.3788 248.045 69.1331C248.045 57.2194 239.798 47.562 229.628 47.562C219.455 47.562 211.211 57.2194 211.211 69.1331C211.211 75.3788 213.48 81.0032 217.102 84.9408C220.391 88.516 224.79 90.7042 229.628 90.7042Z" fill="#6403FC"/>
<path d="M196.159 100.454L198.442 99.1543L200.515 102.923L198.335 106.79L194.858 105.182L196.159 100.454Z" fill="#AA6755"/>
<path d="M263.1 98.6861L260.817 97.3862L258.745 101.152L260.924 105.022L264.401 103.414L263.1 98.6861Z" fill="#AA6755"/>
<path d="M70.5955 141.833L54.6082 135.961L57.9028 163.944L55.9937 188.087L55.9419 188.248L55.9828 188.254L55.9773 188.305L59.13 188.605L59.1328 188.602L59.25 188.616L66.2919 167.105L70.0173 144.193L70.5955 141.833Z" fill="#EAC1A4"/>
<path d="M58.9664 189.706L55.6964 189.624L54.8618 192.382L54.9436 192.406L54.9218 192.409L60.33 195.611L62.9018 195.894L63.2291 192.959L62.5336 192.45L58.9664 189.706Z" fill="#3B455A"/>
<path d="M81.4882 142.316L76.6882 190.229L73.5246 190.374L70.3446 164.502L64.8328 138.735L81.4882 142.316Z" fill="#EAC1A4"/>
<path d="M76.68 191.344L80.8718 193.717L80.4791 195.693L72.99 194.565L73.4291 191.72L76.68 191.344Z" fill="#3B455A"/>
<path d="M88.9827 154.349C89.9945 153.646 90.0164 152.425 90.0136 151.202C90.0109 148.905 89.5964 146.553 89.07 144.321C88.0664 140.13 86.9291 135.084 86.4273 129.655C85.1345 115.622 80.7 106.207 80.7 106.207L79.2682 102.394C78.9845 101.899 78.69 101.408 78.3818 100.926C76.5954 98.1244 73.4918 93.3611 70.1727 92.5817C70.1045 92.5654 70.0336 92.549 69.9627 92.5354C66.4718 91.7697 62.0018 92.1267 58.8491 93.8216C58.2518 94.1432 57.7173 94.571 57.1909 94.9988C55.65 96.2414 54.39 96.9145 53.7273 98.8084C53.1491 100.452 53.0154 102.247 52.6963 103.95C52.05 107.414 51.6627 110.916 51.1473 114.398C50.1791 120.93 49.3582 127.481 48.3218 134.002C47.79 137.356 47.2527 140.719 46.9991 144.111C46.7754 147.109 44.07 150.153 42.5482 152.84C42.0191 153.774 49.62 156.197 50.3018 156.355C53.4545 157.088 56.8091 156.9 60.06 156.916C67.1836 156.949 74.31 156.728 81.4173 156.26C83.7791 156.104 86.6918 155.652 88.7864 154.477C88.8573 154.431 88.9227 154.39 88.9827 154.349Z" fill="#D34E4E"/>
<path d="M66.0491 92.1458C66.0491 92.1458 62.0373 91.0639 61.4809 100.111C60.9273 109.158 60.0027 132.053 58.71 138.332C57.4173 144.61 55.4755 156.922 55.4755 156.922L67.7646 157.35L81.81 156.24C81.81 156.24 77.0046 147.379 76.2655 141.1C75.5264 134.822 76.8191 111.188 73.6773 102.326C70.5355 93.4647 69.8755 92.3065 66.0491 92.1458Z" fill="#D34E4E"/>
<path d="M84.21 112.297L85.1346 113.406L88.4591 108.79L75.1555 94.018L70.1646 92.541L72.5673 99.0047L84.21 112.297Z" fill="#826656"/>
<path d="M73.0909 108.474L70.17 106.25L71.0672 104.964L73.4045 106.043L73.5436 105.236L75.8127 107.444L75.06 108.91L73.0909 108.474Z" fill="#EAC1A4"/>
<path d="M84.5291 107.907L84.3982 108.193L75.2945 106.441L73.9527 109.422L85.1345 113.406L84.5291 107.907Z" fill="#826656"/>
<path d="M71.6455 84.9791C72.2536 86.7994 71.3727 88.7423 70.6036 90.4046C69.9191 91.8761 69.6818 92.8462 71.4191 93.244C72.3982 93.4675 74.1327 93.8844 74.9918 93.1378C75.6409 92.571 75.2755 90.8188 74.9591 90.1239C74.7164 89.5925 74.0782 89.3228 73.8518 88.7859C73.7591 88.5652 73.7455 88.3172 73.74 88.0774C73.7264 87.0964 73.8627 86.11 74.1409 85.1698C74.3318 84.5295 74.5882 83.9027 74.6455 83.2378C74.7273 82.2732 74.0455 81.1505 73.6882 80.2648C73.0227 78.6189 70.7018 76.409 68.7573 77.7006C68.3155 77.9949 68.0564 78.4936 67.8409 78.9786C67.7127 79.2675 67.59 79.57 67.5873 79.8888C67.5736 81.1532 68.7273 81.3657 69.5264 81.968C70.5109 82.7064 71.2582 83.8155 71.6455 84.9791Z" fill="#3B3631"/>
<path d="M67.95 92.0857C69.6354 91.6878 70.9527 90.2763 71.5855 88.6658C72.2182 87.0553 72.2509 85.2705 72.0764 83.5483C71.4927 77.8203 64.3636 78.1882 61.9473 82.5782C59.8445 86.4041 63.0491 93.2411 67.95 92.0857Z" fill="#D5C6AB"/>
<path d="M67.9473 91.4702C67.92 92.1215 67.89 92.7755 67.8627 93.4267C67.8573 93.5221 67.8518 93.6284 67.7836 93.6965C67.7073 93.7755 67.5845 93.7755 67.4754 93.7728C66.9436 93.7537 66.4118 93.7374 65.88 93.7183C65.6154 93.7101 65.3427 93.6965 65.1082 93.5739C64.5982 93.3014 64.4945 92.612 64.5763 92.0397C64.6582 91.4675 64.8627 90.8925 64.7427 90.3284C65.8418 90.8707 66.8863 89.6472 67.9827 90.1867L67.9473 91.4702Z" fill="#D5C6AB"/>
<path d="M65.6482 73.6185C63.7746 74.2534 62.5746 76.1473 60.7473 76.9021C59.7001 77.3354 58.4591 77.3899 57.6055 78.1338C55.6882 79.8015 57.2292 83.3031 55.6555 85.2978C55.3282 85.712 54.8864 86.0254 54.5592 86.4396C53.8501 87.3307 53.7573 88.5487 53.6946 89.6851C53.681 89.9412 53.6782 90.2192 53.7219 90.478C53.9673 93.1049 57.7828 92.936 59.2991 92.7698C60.9628 92.5845 60.4091 91.6607 60.4091 91.6607L60.3491 91.5871C60.191 90.5216 60.6273 89.3826 61.4673 88.7041C61.7782 88.4534 62.1464 88.2517 62.3646 87.9165C62.8582 87.1644 62.3864 86.1698 62.4601 85.2733C62.7519 81.6681 68.8091 82.4393 70.5164 79.8723C72.611 76.7277 69.1855 72.4195 65.6482 73.6185Z" fill="#3B3631"/>
<path d="M83.7955 84.306C83.5118 84.1643 83.2255 84.0254 82.9364 83.8891C85.8191 79.7062 87.3791 74.5723 87.3791 69.1305C87.3791 56.0069 78.1146 45.3276 66.7282 45.3276C55.3418 45.3276 46.0773 56.0042 46.0773 69.1305C46.0773 74.5751 47.6373 79.709 50.52 83.8891C50.0728 84.0935 49.7755 84.2434 49.6446 84.3115C37.5437 89.8678 29.7273 101.997 29.7273 115.235V123.483C29.7273 127.034 32.6182 129.923 36.1718 129.923H97.2873C100.841 129.923 103.732 127.034 103.732 123.483V115.235C103.732 101.989 95.9073 89.8541 83.7955 84.306Z" fill="white"/>
<path d="M82.83 86.3169C82.7182 86.4531 82.6118 86.5921 82.4972 86.7256C78.3218 91.617 72.7227 94.3093 66.7282 94.3093C60.7363 94.3093 55.1345 91.617 50.9591 86.7256C50.8445 86.5921 50.7382 86.4531 50.6264 86.3169C39.6382 91.3336 31.9554 102.43 31.9554 115.232V123.48C31.9554 125.805 33.8427 127.691 36.1691 127.691H97.2845C99.6109 127.691 101.498 125.805 101.498 123.48V115.232C101.501 102.43 93.8182 91.3336 82.83 86.3169Z" fill="#6403FC"/>
<path d="M66.7309 90.7042C71.5691 90.7042 75.9709 88.516 79.2573 84.9408C82.8791 81.0005 85.1482 75.3788 85.1482 69.1331C85.1482 57.2194 76.9009 47.562 66.7309 47.562C56.5582 47.562 48.3137 57.2194 48.3137 69.1331C48.3137 75.3788 50.5828 81.0032 54.2046 84.9408C57.4909 88.516 61.89 90.7042 66.7309 90.7042Z" fill="#6403FC"/>
<path d="M33.2591 100.454L35.5418 99.1543L37.6145 102.923L35.4382 106.79L31.9582 105.182L33.2591 100.454Z" fill="#EAC1A4"/>
<path d="M100.203 98.6861L97.9173 97.3862L95.8446 101.152L98.0237 105.022L101.501 103.414L100.203 98.6861Z" fill="#EAC1A4"/>
<path d="M160.59 190.333L160.89 192.666L156.521 195.598L153.886 193.565L155.921 190.933L160.29 188L160.59 190.333Z" fill="#40495F"/>
<path d="M160.737 189.549L157.369 159.802L161.422 126.5L160.511 119.415L142.405 118.729L141.75 130.258L144.791 159.849L156.226 191.069L160.737 189.549Z" fill="#3B455A"/>
<path d="M140.706 85.813L131.596 88.2927L121.064 106.94L126.052 111.556L133.075 103.248L140.706 85.813Z" fill="#EBB044"/>
<path d="M129.117 122.061L129.071 152.08L135.117 190.726L139.47 190.682L141.865 154.944L147.464 119.175L129.117 122.061Z" fill="#3B455A"/>
<path d="M139.465 192.516L134.779 194.914L132.404 192.587L134.733 190.21L139.44 190.164L139.465 192.516Z" fill="#40495F"/>
<path d="M163.296 132.271C163.255 130.972 163.181 129.884 163.17 129.497C163.077 126.007 162.766 122.527 162.327 119.061C161.935 115.957 161.441 108.248 160.909 105.16C160.47 102.613 158.94 96.2524 157.836 93.8898C155.086 88.012 155.935 87.4697 143.858 85.7257C138.565 84.96 137.316 88.2572 132.987 92.0477C132.562 92.421 132.584 94.6473 132.486 95.2359C132.311 96.2742 132.126 97.3097 131.91 98.3424C131.741 99.1518 131.556 99.9611 131.348 100.762C129.194 109.071 126.717 117.06 126.213 125.674C126.068 128.105 125.321 130.462 125.389 132.915C125.397 133.195 125.419 133.498 125.596 133.718C126.327 134.639 130.361 133.233 131.588 133.113C134.706 132.808 137.886 132.615 141.019 132.637C144.235 132.661 147.464 132.985 150.625 133.53C152.738 133.885 154.896 134.397 156.788 135.383C158.594 136.326 159.895 137.71 161.725 138.686C161.899 138.779 162.087 138.874 162.286 138.847C163.334 138.7 163.383 135.01 163.296 132.271Z" fill="#CCD2D9"/>
<path d="M143.845 87.3826C144.453 87.6823 145.893 87.7913 147.393 87.2027C147.695 87.0856 147.9 86.794 147.895 86.4697C147.884 85.5596 147.81 84.6494 147.676 83.7474C148.803 83.3523 150.101 82.7583 150.297 81.5838C150.36 81.2132 150.295 80.8344 150.232 80.4665C149.967 78.9378 149.703 77.4091 149.438 75.8776C149.345 75.349 149.25 74.804 148.961 74.3516C148.456 73.5559 147.475 73.2099 146.547 73.0464C144.177 72.6349 141.595 73.1472 139.756 74.7004C139.268 75.1119 138.826 75.6106 138.608 76.2128C138.275 77.142 138.524 78.1666 138.775 79.1204C139.006 80.0006 139.238 80.8807 139.47 81.7609C139.737 82.7746 140.119 83.9246 141.098 84.3033C141.616 84.505 142.23 84.445 142.699 84.7448C143.525 85.2734 143.416 86.5024 143.845 87.3826Z" fill="#D5C6AB"/>
<path d="M130.775 72.0655C130.369 68.2696 132.03 64.2693 135.155 65.065C137.048 65.5473 138.745 66.343 140.648 65.6318C142.44 64.9641 143.733 65.2366 145.604 65.9043C147.63 66.6264 150.349 66.7981 152.182 67.8172C152.948 68.2423 153.559 68.9072 154.034 69.643C155.684 72.1881 155.692 75.7006 154.055 78.254C153.687 78.8262 153.248 79.3521 152.787 79.8508C151.833 80.8863 150.687 82.1643 149.373 82.5486C149.343 81.3741 150.412 77.6681 149.509 76.7062C148.075 75.1774 144.835 75.7115 143.056 76.0876C141.117 76.4991 139.388 77.8697 137.465 78.164C133.225 78.8099 131.144 75.5208 130.775 72.0655Z" fill="#3B3631"/>
<path d="M165.933 63.9804C165.6 63.8142 165.267 63.6534 164.929 63.4954C168.3 58.604 170.125 52.6008 170.125 46.2379C170.125 30.8907 159.292 18.4048 145.977 18.4048C132.663 18.4048 121.83 30.8907 121.83 46.2379C121.83 52.6035 123.655 58.6067 127.026 63.4954C126.502 63.7352 126.153 63.9096 126 63.9886C111.848 70.4795 102.709 84.6631 102.709 100.141V109.788C102.709 113.941 106.091 117.317 110.245 117.317H181.707C185.864 117.317 189.243 113.938 189.243 109.788V100.141C189.246 84.6577 180.096 70.4686 165.933 63.9804Z" fill="white"/>
<path d="M164.804 66.332C164.673 66.4901 164.547 66.6536 164.416 66.8089C159.535 72.526 152.986 75.6761 145.977 75.6761C138.971 75.6761 132.423 72.526 127.538 66.8089C127.405 66.6536 127.279 66.4901 127.151 66.332C114.303 72.1962 105.319 85.1727 105.319 100.144V109.79C105.319 112.51 107.526 114.712 110.245 114.712H181.707C184.429 114.712 186.633 112.507 186.633 109.79V100.144C186.636 85.1727 177.649 72.199 164.804 66.332Z" fill="#F79D31"/>
<path d="M145.977 71.4631C151.636 71.4631 156.78 68.9043 160.626 64.7241C164.861 60.1189 167.515 53.5435 167.515 46.2377C167.515 32.3075 157.871 21.0151 145.977 21.0151C134.084 21.0151 124.44 32.3075 124.44 46.2377C124.44 53.5407 127.094 60.1162 131.329 64.7241C135.175 68.9043 140.318 71.4631 145.977 71.4631Z" fill="#F79D31"/>
<path d="M121.631 117.205L120.635 114.774L124.642 113.208L128.198 115.867L126.153 119.104L121.631 117.205Z" fill="#EAC1A4"/>
<path d="M166.38 117.189L167.365 114.756L163.353 113.205L159.805 115.876L161.864 119.107L166.38 117.189Z" fill="#EAC1A4"/>
<path d="M182.441 135.746C197.334 135.746 209.408 123.682 209.408 108.801C209.408 93.92 197.334 81.8564 182.441 81.8564C167.547 81.8564 155.474 93.92 155.474 108.801C155.474 123.682 167.547 135.746 182.441 135.746Z" fill="#D34E4E"/>
<path d="M187.061 92.2168H177.821V125.385H187.061V92.2168Z" fill="white"/>
<path d="M199.037 113.417V104.185H165.84V113.417H199.037Z" fill="white"/>
</svg>
