<svg width="40" height="25" viewBox="0 0 40 25" fill="none" xmlns="http://www.w3.org/2000/svg">
<g clip-path="url(#clip0_142_847)">
<path fill-rule="evenodd" clip-rule="evenodd" d="M36.5732 2.49551e-07C34.6457 4.35821e-07 14.2383 -3.95541e-07 2.84167 2.49551e-07C1.87791 3.04104e-07 0.914154 0.986889 0.914154 1.97378V21.7116C0.914154 23.6853 1.87791 24.6722 3.80543 24.6722C14.5569 24.6722 34.6457 24.6722 36.5732 24.6722C38.5007 24.6722 39.4645 23.6853 39.4645 21.7116V2.96067C39.4645 0.986889 38.5007 2.49551e-07 36.5732 2.49551e-07Z" fill="#306FC5"/>
<path fill-rule="evenodd" clip-rule="evenodd" d="M4.17162 9.03648L3.425 7.17348L2.68265 9.03648H4.17162ZM20.6196 8.29463C20.4696 8.3878 20.2924 8.3909 20.08 8.3909H18.7548V7.35291H20.098C20.2881 7.35291 20.4864 7.36165 20.6153 7.4372C20.7568 7.50528 20.8443 7.65019 20.8443 7.85034C20.8443 8.05459 20.7611 8.21894 20.6196 8.29463C20.6196 8.29463 20.7611 8.21894 20.6196 8.29463ZM30.0732 9.03648L29.3183 7.17348L28.5675 9.03648H30.0732ZM12.4511 11.053H11.3328L11.3287 7.39294L9.7469 11.053H8.78913L7.20325 7.3897V11.053H4.98459L4.56544 10.0106H2.2942L1.87078 11.053H0.686019L2.63943 6.37976H4.26013L6.11539 10.8043V6.37976H7.89577L9.32335 9.54997L10.6348 6.37976H12.4509V11.053H12.4511ZM16.9081 11.053H13.264V6.37976H16.9081V7.35291H14.3549V8.19526H16.8468V9.15319H14.3549V10.0864H16.9081V11.053ZM22.046 7.63835C22.046 8.38343 21.5604 8.76838 21.2774 8.88396C21.5161 8.97699 21.7199 9.14135 21.817 9.27751C21.971 9.50994 21.9976 9.71757 21.9976 10.1349V11.053H20.8973L20.8932 10.4636C20.8932 10.1824 20.9195 9.77804 20.721 9.55322C20.5616 9.38886 20.3186 9.3532 19.9259 9.3532H18.7549V11.053H17.6642V6.37976H20.1731C20.7306 6.37976 21.1414 6.39484 21.494 6.6036C21.8391 6.81235 22.046 7.1171 22.046 7.63835C22.046 7.63835 22.046 7.1171 22.046 7.63835ZM23.7917 11.053H22.6787V6.37976H23.7917V11.053ZM36.7045 11.053H35.1587L33.091 7.54546V11.053H30.8695L30.4449 10.0106H28.1789L27.7671 11.053H26.4906C25.9604 11.053 25.2891 10.9329 24.9089 10.5361C24.5255 10.1393 24.3261 9.60185 24.3261 8.75203C24.3261 8.05896 24.4453 7.42536 24.9141 6.92469C25.2668 6.55173 25.819 6.37976 26.5708 6.37976H27.6268V7.3811H26.5929C26.1948 7.3811 25.97 7.44171 25.7535 7.65794C25.5676 7.85471 25.44 8.22669 25.44 8.71651C25.44 9.21718 25.5371 9.57817 25.7399 9.81398C25.9078 9.99892 26.213 10.055 26.5001 10.055H26.99L28.5275 6.3799H30.1619L32.0088 10.8001V6.3799H33.6697L35.5872 9.63455V6.3799H36.7045V11.053ZM0.673355 11.9709H2.53715L2.9574 10.9329H3.89825L4.31739 11.9709H7.98456V11.1773L8.31189 11.9743H10.2156L10.5429 11.1655V11.9709H19.6565L19.6523 10.267H19.8286C19.9521 10.2714 19.9881 10.2831 19.9881 10.4918V11.9709H24.7017V11.5742C25.0819 11.7828 25.6733 11.9709 26.4514 11.9709H28.4344L28.8588 10.9329H29.7996L30.2147 11.9709H34.036V10.9849L34.6147 11.9709H37.6769V5.45312H34.6463V6.22288L34.222 5.45312H31.1123V6.22288L30.7226 5.45312H26.5222C25.819 5.45312 25.201 5.55363 24.7017 5.8337V5.45312H21.8031V5.8337C21.4854 5.54503 21.0525 5.45312 20.5711 5.45312H9.98118L9.27063 7.13655L8.54094 5.45312H5.20538V6.22288L4.83895 5.45312H1.99426L0.673218 8.55202V11.9709H0.673355ZM39.474 15.4121H37.4859C37.2874 15.4121 37.1556 15.4198 37.0445 15.4966C36.9294 15.5723 36.8851 15.6846 36.8851 15.8329C36.8851 16.0092 36.9823 16.1292 37.1236 16.181C37.2387 16.2221 37.3623 16.234 37.544 16.234L38.1352 16.2503C38.7318 16.2653 39.13 16.3704 39.3729 16.6265C39.417 16.6621 39.4436 16.7022 39.474 16.7422V15.4121ZM39.474 18.4938C39.2091 18.8906 38.6927 19.0918 37.9937 19.0918H35.8871V18.0894H37.9852C38.1933 18.0894 38.339 18.0614 38.4266 17.9737C38.5026 17.9014 38.5556 17.7964 38.5556 17.6688C38.5556 17.5327 38.5026 17.4246 38.4224 17.3597C38.3432 17.2884 38.228 17.256 38.0381 17.256C37.0138 17.2203 35.736 17.2884 35.736 15.8092C35.736 15.1312 36.1564 14.4176 37.3011 14.4176H39.4739V13.4875H37.4551C36.8459 13.4875 36.4033 13.637 36.0899 13.8692V13.4875H33.1038C32.6263 13.4875 32.0658 13.6088 31.8007 13.8692V13.4875H26.4683V13.8692C26.044 13.5558 25.3279 13.4875 24.9974 13.4875H21.4801V13.8692C21.1444 13.5363 20.3978 13.4875 19.9427 13.4875H16.0063L15.1055 14.4858L14.2619 13.4875H8.38168V20.0098H14.1512L15.0794 18.9958L15.9537 20.0098L19.5101 20.013V18.4788H19.8597C20.3316 18.4862 20.8881 18.4668 21.3791 18.2494V20.0097H24.3125V18.3097H24.454C24.6346 18.3097 24.6523 18.3174 24.6523 18.5022V20.0095H33.5633C34.129 20.0095 34.7204 19.8612 35.0479 19.5922V20.0095H37.8744C38.4626 20.0095 39.037 19.9251 39.474 19.7089V18.4938ZM35.1227 16.6265C35.3351 16.8516 35.449 17.1357 35.449 17.6168C35.449 18.6224 34.8355 19.0918 33.7354 19.0918H31.6107V18.0894H33.7268C33.9337 18.0894 34.0804 18.0614 34.1724 17.9737C34.2474 17.9014 34.3012 17.7964 34.3012 17.6688C34.3012 17.5327 34.243 17.4246 34.1681 17.3597C34.0847 17.2884 33.9696 17.256 33.7797 17.256C32.7596 17.2203 31.482 17.2884 31.482 15.8092C31.482 15.1312 31.898 14.4176 33.0416 14.4176H35.2285V15.4124H33.2274C33.0291 15.4124 32.9001 15.42 32.7904 15.4969C32.6709 15.5725 32.6266 15.6849 32.6266 15.8332C32.6266 16.0095 32.728 16.1295 32.8653 16.1813C32.9803 16.2223 33.104 16.2343 33.2898 16.2343L33.877 16.2505C34.4692 16.2653 34.8757 16.3702 35.1227 16.6265C35.1227 16.6265 34.8757 16.3702 35.1227 16.6265ZM25.2796 16.3378C25.1337 16.4265 24.9532 16.4341 24.741 16.4341H23.4158V15.3842H24.759C24.9532 15.3842 25.1476 15.3885 25.2796 15.4687C25.421 15.5444 25.5055 15.6891 25.5055 15.8891C25.5055 16.0891 25.421 16.2503 25.2796 16.3378C25.2796 16.3378 25.421 16.2503 25.2796 16.3378ZM25.9384 16.9195C26.1812 17.0113 26.3797 17.1758 26.4727 17.3119C26.6268 17.5401 26.6491 17.7531 26.6535 18.1651V19.0918H25.5583V18.5069C25.5583 18.2257 25.5848 17.8094 25.382 17.592C25.2226 17.4246 24.9796 17.3845 24.5817 17.3845H23.4159V19.0918H22.3198V14.4174H24.8383C25.3905 14.4174 25.7928 14.4424 26.1508 14.638C26.495 14.851 26.7116 15.1428 26.7116 15.676C26.7114 16.4221 26.2255 16.8028 25.9384 16.9195C25.9384 16.9195 26.2255 16.8028 25.9384 16.9195ZM27.3164 14.4174H30.9571V15.3841H28.4028V16.2339H30.8948V17.1876H28.4028V18.1176L30.9571 18.1219V19.0918H27.3164V14.4174ZM19.9566 16.5746H18.5469V15.3842H19.9693C20.3631 15.3842 20.6365 15.5486 20.6365 15.9574C20.6365 16.3616 20.3758 16.5746 19.9566 16.5746ZM17.4605 18.6666L15.7857 16.7626L17.4605 14.9191V18.6666ZM13.1353 18.1176H10.4533V17.1876H12.8482V16.2339H10.4533V15.3841H13.1882L14.3813 16.7463L13.1353 18.1176ZM21.8076 15.9574C21.8076 17.2558 20.8615 17.5239 19.908 17.5239H18.5469V19.0918H16.4267L15.0835 17.5444L13.6876 19.0918H9.36671V14.4174H13.7541L15.0962 15.9496L16.4837 14.4174H19.9693C20.835 14.4174 21.8076 14.6628 21.8076 15.9574C21.8076 15.9574 21.8076 14.6628 21.8076 15.9574Z" fill="white"/>
</g>
<defs>
<clipPath id="clip0_142_847">
<rect width="38.5503" height="24.6722" fill="white" transform="translate(0.914154)"/>
</clipPath>
</defs>
</svg>
