<svg width="217" height="191" viewBox="0 0 217 191" fill="none" xmlns="http://www.w3.org/2000/svg">
<path d="M175.992 17.9497C174.57 18.9577 169.837 22.3769 168.555 23.4131L141.923 43.3725C141.788 43.4812 141.625 43.5501 141.453 43.5715C141.281 43.5929 141.106 43.566 140.947 43.4937L39.624 15.4311C38.9841 15.225 38.3083 15.1606 37.6435 15.2421C36.9787 15.3237 36.3408 15.5493 35.7738 15.9034L24.5288 23.8759L103.226 70.1739C103.409 70.2778 103.562 70.4275 103.671 70.6082C103.78 70.7889 103.84 70.9944 103.846 71.2046C103.851 71.4147 103.803 71.6223 103.704 71.807C103.605 71.9916 103.46 72.1469 103.283 72.2577L52.9327 109.097C52.4146 109.488 51.8107 109.751 51.17 109.864C50.5293 109.977 49.8699 109.936 49.2452 109.745L20.3088 101.726C17.8874 100.969 14.9089 101.749 12.8639 103.199L4.97696 108.791C4.4375 109.173 4.87898 109.628 5.39035 110.039L35.0553 134.295C36.8268 135.465 38.0984 137.258 38.6157 139.317L51.6128 175.252C51.9495 176.25 52.2929 176.672 53.2506 175.993L60.7445 170.68C64.1485 168.266 64.2956 167.49 64.4674 164.045L66.56 133.583C66.5921 132.931 66.7743 132.297 67.0922 131.731C67.4101 131.164 67.8552 130.681 68.3926 130.318L119.667 95.6768C119.854 95.5508 120.069 95.4726 120.293 95.4491C120.518 95.4256 120.745 95.4575 120.956 95.5421C121.166 95.6266 121.353 95.7612 121.501 95.9342C121.648 96.1072 121.752 96.3133 121.802 96.5346L139.418 185.923L150.558 178.025C151.079 177.607 151.502 177.081 151.799 176.482C152.096 175.883 152.259 175.226 152.277 174.555L159.471 69.6124C159.455 69.2436 160.038 68.6397 160.327 68.4351L187.557 50.2069C188.997 49.3129 193.748 46.0078 195.174 44.9968C213.687 31.8713 221.755 18.4339 215.793 10.0235C209.83 1.6131 194.56 4.78565 175.992 17.9497Z" stroke="#EBDEFE" stroke-width="9" stroke-linecap="round" stroke-linejoin="round"/>
</svg>
