<svg width="20" height="16" viewBox="0 0 20 16" fill="none" xmlns="http://www.w3.org/2000/svg">
<path d="M14.2361 3.30475L13.0715 1.46462C12.8261 1.1785 12.4896 1 12.1125 1H8.0875C7.71037 1 7.37393 1.1785 7.1285 1.46462L5.96387 3.30475C5.71843 3.59131 5.40212 3.8 5.025 3.8H2.4C2.0287 3.8 1.6726 3.9475 1.41005 4.21005C1.1475 4.4726 1 4.82869 1 5.2V13.6C1 13.9713 1.1475 14.3274 1.41005 14.5899C1.6726 14.8525 2.0287 15 2.4 15H17.8C18.1713 15 18.5274 14.8525 18.7899 14.5899C19.0525 14.3274 19.2 13.9713 19.2 13.6V5.2C19.2 4.82869 19.0525 4.4726 18.7899 4.21005C18.5274 3.9475 18.1713 3.8 17.8 3.8H15.2187C14.8403 3.8 14.4816 3.59131 14.2361 3.30475Z" stroke="#121212" stroke-linecap="round" stroke-linejoin="round"/>
<path d="M10.1 12.2C12.033 12.2 13.6 10.633 13.6 8.70001C13.6 6.76701 12.033 5.20001 10.1 5.20001C8.16698 5.20001 6.59998 6.76701 6.59998 8.70001C6.59998 10.633 8.16698 12.2 10.1 12.2Z" stroke="#121212" stroke-miterlimit="10"/>
<path d="M4.07999 3.79999V2.67999H3.23999V3.79999" stroke="#121212" stroke-linecap="round" stroke-linejoin="round"/>
<path d="M11.3601 8.55997H8.56006M9.96006 7.15997V9.95997V7.15997Z" stroke="#121212" stroke-linecap="round" stroke-linejoin="round"/>
</svg>
