<svg width="414" height="390" viewBox="0 0 414 390" fill="none" xmlns="http://www.w3.org/2000/svg">
<path d="M488.441 213.585C489.073 308.885 362.534 386.984 205.809 388.024C49.0828 389.064 -78.4812 312.651 -79.1136 217.351C-79.746 122.051 64.8285 -82.5677 203.518 42.9124C332.167 159.308 487.808 118.285 488.441 213.585Z" fill="#EBF2F9"/>
<path d="M345.687 252.424C345.687 252.424 402.43 259.255 420.493 233.412C443.927 199.884 395.782 174.463 358.856 179.199C278.394 189.52 279.401 37.0849 170.357 123.781C141.508 146.718 102.624 105.581 55.5484 156.352C44.5473 168.217 -22.6927 145.284 -56.156 154.674C-121.647 173.053 -91.7017 252.733 -44.9055 253.046C1.88949 253.359 345.687 252.424 345.687 252.424Z" fill="#EBF2F9"/>
<path d="M267.203 180.319H232.082V215.338H267.203V180.319Z" fill="#4A75CB"/>
<path d="M278.032 180.319H242.911V215.338H278.032V180.319Z" fill="#699DEE"/>
<path d="M299.7 215.338H262.006V252.924H299.7V215.338Z" fill="#D86713"/>
<path d="M311.322 215.338H273.627V252.924H311.322V215.338Z" fill="#F1A34F"/>
<path d="M273.627 215.338L262.006 222.363V215.338H273.627Z" fill="#C95C12"/>
<path d="M178.967 219.258H155.012V243.144H178.967V219.258Z" fill="#D86713"/>
<path d="M186.353 219.258H162.397V243.144H186.353V219.258Z" fill="#F1A34F"/>
<path d="M162.397 219.258L155.012 223.724V219.258H162.397Z" fill="#C95C12"/>
<path d="M167.009 233.209H157.723L158.113 232.126L157.723 230.959H166.923L166.359 232.17L167.009 233.209Z" fill="#FFD5AB"/>
<path d="M162.366 230.959V233.209H157.723L158.113 232.126L157.723 230.959H162.366Z" fill="#C95C12"/>
<path d="M170.226 205.524H156.451V219.26H170.226V205.524Z" fill="#D86713"/>
<path d="M174.474 205.524H160.698V219.26H174.474V205.524Z" fill="#F1A34F"/>
<path d="M160.698 205.524L156.451 208.092V205.524H160.698Z" fill="#C95C12"/>
<path d="M177.003 208.441H166.154V219.259H177.003V208.441Z" fill="#4A75CB"/>
<path d="M180.348 208.441H169.499V219.259H180.348V208.441Z" fill="#699DEE"/>
<path d="M174.38 215.867L170.354 216.669L170.762 218.709L174.788 217.907L174.38 215.867Z" fill="#EBF2F9"/>
<path d="M171.451 211.199H167.531L167.696 210.742L167.531 210.249H171.414L171.176 210.761L171.451 211.199Z" fill="#EBF2F9"/>
<path d="M169.491 210.249V211.199H167.531L167.696 210.742L167.531 210.249H169.491Z" fill="#A6C7F9"/>
<path d="M163.017 208.496H158.384L158.579 207.956L158.384 207.373H162.973L162.692 207.978L163.017 208.496Z" fill="#FFD5AB"/>
<path d="M160.7 207.373V208.496H158.384L158.579 207.956L158.384 207.373H160.7Z" fill="#C95C12"/>
<path d="M163.017 216.791H158.384L158.579 216.251L158.384 215.669H162.973L162.692 216.272L163.017 216.791Z" fill="#FFD5AB"/>
<path d="M160.7 215.669V216.791H158.384L158.579 216.251L158.384 215.669H160.7Z" fill="#C95C12"/>
<path d="M194.435 224.142H175.377V243.146H194.435V224.142Z" fill="#4A75CB"/>
<path d="M200.311 224.142H181.253V243.146H200.311V224.142Z" fill="#699DEE"/>
<path d="M198.715 225.292L194.149 226.201L194.612 228.514L199.178 227.605L198.715 225.292Z" fill="#EBF2F9"/>
<path d="M183.784 227.151H178.619L178.836 226.55L178.619 225.9H183.735L183.422 226.574L183.784 227.151Z" fill="#EBF2F9"/>
<path d="M181.201 225.9V227.151H178.619L178.836 226.55L178.619 225.9H181.201Z" fill="#A6C7F9"/>
<path d="M183.784 241.305H178.619L178.836 240.704L178.619 240.054H183.735L183.422 240.728L183.784 241.305Z" fill="#EBF2F9"/>
<path d="M181.201 240.054V241.305H178.619L178.836 240.704L178.619 240.054H181.201Z" fill="#A6C7F9"/>
<path d="M148.468 247.295C147.022 247.295 145.851 248.462 145.851 249.904C145.851 251.345 147.022 252.513 148.468 252.513C149.913 252.513 151.084 251.345 151.084 249.904C151.084 248.462 149.913 247.295 148.468 247.295Z" fill="#1C468A"/>
<path d="M148.468 248.207C147.54 248.207 146.789 248.957 146.789 249.881C146.789 250.806 147.541 251.555 148.468 251.555C149.395 251.555 150.146 250.805 150.146 249.881C150.146 248.956 149.395 248.207 148.468 248.207Z" fill="#699DEE"/>
<path d="M201.126 247.295C199.68 247.295 198.509 248.462 198.509 249.904C198.509 251.345 199.68 252.513 201.126 252.513C202.571 252.513 203.742 251.345 203.742 249.904C203.742 248.462 202.571 247.295 201.126 247.295Z" fill="#1C468A"/>
<path d="M201.125 248.207C200.198 248.207 199.447 248.957 199.447 249.881C199.447 250.806 200.199 251.555 201.125 251.555C202.053 251.555 202.804 250.805 202.804 249.881C202.804 248.956 202.053 248.207 201.125 248.207Z" fill="#699DEE"/>
<path d="M206.578 243.145H153.058L131.696 184.968C131.503 184.443 131.011 184.086 130.451 184.062L123.329 183.769C122.564 183.738 121.918 184.331 121.887 185.093C121.856 185.856 122.45 186.5 123.215 186.531L129.412 186.786L150.106 243.144H145.452C144.715 243.144 144.112 243.745 144.112 244.48V246.075C144.112 246.81 144.715 247.411 145.452 247.411H206.578C207.315 247.411 207.918 246.81 207.918 246.075V244.48C207.92 243.746 207.317 243.145 206.578 243.145Z" fill="#1C468A"/>
<path d="M122.385 179.536C122.385 179.536 125.05 181.287 127.102 181.366C129.153 181.445 130.377 183.491 130.659 184.344C130.941 185.196 130.126 186.506 129.493 185.73C128.538 184.556 126.586 185.471 124.722 183.936C122.857 182.401 120.075 181.415 120.075 181.415L122.385 179.536Z" fill="#9E6138"/>
<path d="M98.6123 150.773C98.6123 150.773 104.338 171.194 108.905 175.318C111.274 177.457 124.397 186.185 125.477 183.401C125.477 183.401 127.098 181.426 126.198 180.258C126.198 180.258 115.168 172.348 114.31 171.816C112.814 170.89 114.656 152.348 110.738 149.155C106.821 145.96 100.799 145.134 98.6123 150.773Z" fill="#D88029"/>
<path d="M121.726 252.466C121.726 252.466 121.299 252.481 120.601 252.501H109.789C109.539 252.473 109.363 252.438 109.273 252.395C108.302 251.934 108.751 247.662 108.751 247.662C108.751 247.662 112.957 244.169 113.596 246.766C114.237 249.365 117.732 250.468 119.715 250.748C121.698 251.029 121.726 252.466 121.726 252.466Z" fill="#233862"/>
<path d="M87.5724 199.618C89.6535 203.852 94.5868 209.748 96.4058 214.316C96.8359 215.396 97.0929 216.401 97.0966 217.294C97.1392 227.547 108.302 247.765 108.302 247.765C109.366 248.453 113.91 247.078 113.91 247.078C113.91 247.078 113.383 242.585 110.776 227.06C109.338 218.496 106.913 205.747 105.027 196.033C104.542 193.531 104.091 191.23 103.705 189.255C102.867 184.995 102.318 182.246 102.318 182.246L97.9892 182.317L86.2987 182.51C86.2987 182.511 81.4457 187.15 87.5724 199.618Z" fill="#2B478B"/>
<path d="M87.5724 199.618C89.6535 203.852 94.5867 209.748 96.4058 214.316C98.9847 208.874 102.897 200.603 105.027 196.032C104.542 193.531 104.091 191.23 103.705 189.255C102.022 187.202 99.8597 184.569 97.9892 182.317L86.2987 182.509C86.2987 182.511 81.4457 187.15 87.5724 199.618Z" fill="#233862"/>
<path d="M73.4259 252.502H67.5649C67.0183 252.077 66.5506 251.337 66.3513 250.308C66.0116 248.561 63.9969 247.685 63.5105 246.265C63.024 244.845 65.129 242.732 65.129 242.732L65.836 241.744L69.5018 242.446C69.5018 242.446 69.8754 244.99 69.8479 246.91C69.8203 248.831 70.5499 250.869 72.2738 251.172C73.5274 251.392 73.5224 252.12 73.4259 252.502Z" fill="#233862"/>
<path d="M89.6211 224.891C87.4246 228.869 71.2196 247.336 71.2196 247.336C71.2196 247.336 66.1121 245.616 65.2019 242.523C65.2019 242.523 74.7875 226.82 79.1453 220.127C80.3915 218.213 81.0848 188.963 85.5266 183.632C91.0954 176.949 101.176 189.627 101.176 189.627C101.176 189.627 98.022 199.856 97.0416 203.079C94.8665 210.225 91.1343 222.15 89.6211 224.891Z" fill="#2B478B"/>
<path d="M120.853 181.063C120.853 181.063 123.518 182.814 125.57 182.893C127.621 182.972 128.845 185.018 129.127 185.871C129.409 186.723 128.594 188.033 127.961 187.257C127.006 186.084 125.054 186.999 123.19 185.463C121.325 183.928 118.543 182.942 118.543 182.942L120.853 181.063Z" fill="#AB7041"/>
<path d="M111.164 147.047C112.771 144.385 113.452 142.701 113.452 142.701L109.676 136.096C107.476 142.283 102.395 143.682 102.395 143.682C102.395 143.682 108.335 150.181 113.119 150.508C113.119 150.509 112.597 148.763 111.164 147.047Z" fill="#9C5F33"/>
<path d="M114.794 143.11C114.794 143.11 107.305 141.521 108.368 136.886C109.433 132.251 109.183 128.924 114.009 129.743C118.836 130.562 119.355 132.542 119.377 134.175C119.401 135.808 116.769 143.404 114.794 143.11Z" fill="#AB7041"/>
<path d="M108.297 137.207C108.297 137.207 110.748 131.401 117.524 132.968C122.165 134.042 120.949 129.346 120.675 128.571C120.675 128.571 117.069 127.896 113.341 127.302C105.515 126.056 107.878 136.037 108.297 137.207Z" fill="#233862"/>
<path d="M114.578 157.383C114.43 159.7 113.729 163.213 112.778 167.108C112.408 168.617 112.002 170.183 111.574 171.761C110.881 174.321 110.16 176.895 109.416 179.319L109.388 179.405C109.334 179.651 109.25 179.913 109.175 180.153C108.529 182.293 107.91 184.274 107.371 185.955C106.338 189.172 106.331 190.964 105.507 191.327C103.85 192.057 97.3288 191.273 93.4198 189.584C90.1176 188.183 85.0866 183.955 85.1129 181.828C85.143 179.361 88.4615 171.936 90.6617 163.267C93.3759 152.676 99.3973 144.22 104.42 142.476C104.794 142.355 105.196 143.14 106.651 144.534C107.996 145.82 109.69 146.622 111.292 146.794L112.249 148.384C113.543 150.661 114.818 153.603 114.578 157.383Z" fill="#E2923D"/>
<path d="M111.574 171.761C111.205 173.27 112.001 170.184 111.574 171.761C110.881 174.322 110.16 176.895 109.415 179.319L109.388 179.406C109.334 179.652 109.25 179.913 109.175 180.153C108.529 182.293 107.91 184.274 107.371 185.956C96.9275 172.728 102.85 156.887 102.85 156.887L111.574 171.761Z" fill="#D88029"/>
<path d="M96.946 152.434C96.946 152.434 102.672 172.855 107.239 176.979C109.608 179.118 122.731 187.846 123.811 185.062C123.811 185.062 125.432 183.086 124.532 181.918C124.532 181.918 113.502 174.008 112.643 173.477C111.148 172.55 112.989 154.008 109.072 150.816C105.154 147.622 99.1312 146.795 96.946 152.434Z" fill="#E2923D"/>
<path d="M112.433 134.317C112.433 134.317 113.275 132.928 115.521 132.703C115.521 132.703 108.919 132.842 108.644 134.864C108.37 136.887 108.297 137.207 108.297 137.207C108.297 137.207 111.785 137.348 112.433 134.317Z" fill="#233862"/>
<path d="M273.184 202.149L269.785 189.476C269.656 188.996 269.159 188.709 268.678 188.838L247.536 194.477C247.054 194.606 246.767 195.101 246.896 195.581L250.296 208.254C250.424 208.729 250.922 209.02 251.403 208.892L272.546 203.253C273.026 203.124 273.312 202.623 273.184 202.149Z" fill="#F1A34F"/>
<path d="M269.785 189.476C269.656 188.996 269.16 188.709 268.678 188.838L247.536 194.477C247.054 194.606 246.767 195.101 246.896 195.581L260.04 198.865L269.883 189.843L269.785 189.476Z" fill="#D86713"/>
<path d="M271.629 201.564C271.578 201.371 271.377 201.256 271.184 201.308L267.219 202.365C267.026 202.416 266.909 202.616 266.962 202.809C267.013 203.001 267.214 203.118 267.407 203.065L271.372 202.008C271.565 201.956 271.68 201.756 271.629 201.564Z" fill="#D86713"/>
<path d="M255.934 215.338H218.24V252.924H255.934V215.338Z" fill="#D86713"/>
<path d="M267.557 215.338H229.863V252.924H267.557V215.338Z" fill="#F1A34F"/>
<path d="M229.863 215.338L218.24 222.363V215.338H229.863Z" fill="#C95C12"/>
<path d="M237.12 237.289H222.507L223.122 235.587L222.507 233.749H236.984L236.095 235.655L237.12 237.289Z" fill="#FFD5AB"/>
<path d="M229.814 233.749V237.289H222.507L223.122 235.587L222.507 233.749H229.814Z" fill="#C95C12"/>
<path d="M321.025 230.888H299.349V252.502H321.025V230.888Z" fill="#D86713"/>
<path d="M327.709 230.888H306.033V252.502H327.709V230.888Z" fill="#F1A34F"/>
<path d="M306.033 230.888L299.349 234.928V230.888H306.033Z" fill="#C95C12"/>
<path d="M331.688 235.48H314.617V252.501H331.688V235.48Z" fill="#4A75CB"/>
<path d="M336.953 235.48H319.881V252.501H336.953V235.48Z" fill="#699DEE"/>
<path d="M327.564 247.164L321.229 248.425L321.872 251.636L328.207 250.374L327.564 247.164Z" fill="#EBF2F9"/>
<path d="M322.953 239.817H316.785L317.044 239.1L316.785 238.323H322.895L322.52 239.128L322.953 239.817Z" fill="#EBF2F9"/>
<path d="M319.869 238.323V239.817H316.785L317.044 239.1L316.785 238.323H319.869Z" fill="#A6C7F9"/>
<path d="M309.68 235.563H302.391L302.697 234.715L302.391 233.798H309.613L309.17 234.748L309.68 235.563Z" fill="#FFD5AB"/>
<path d="M306.036 233.798V235.563H302.391L302.697 234.715L302.391 233.798H306.036Z" fill="#C95C12"/>
<path d="M309.68 248.617H302.391L302.697 247.768L302.391 246.85H309.613L309.17 247.802L309.68 248.617Z" fill="#FFD5AB"/>
<path d="M306.036 246.85V248.617H302.391L302.697 247.768L302.391 246.85H306.036Z" fill="#C95C12"/>
<path d="M280.361 223.146H250.373V253.048H280.361V223.146Z" fill="#4A75CB"/>
<path d="M289.607 223.146H259.619V253.048H289.607V223.146Z" fill="#699DEE"/>
<path d="M287.102 224.953L279.919 226.384L280.648 230.024L287.831 228.594L287.102 224.953Z" fill="#EBF2F9"/>
<path d="M263.6 227.882H255.473L255.814 226.935L255.473 225.913H263.524L263.03 226.973L263.6 227.882Z" fill="#EBF2F9"/>
<path d="M259.536 225.913V227.882H255.473L255.814 226.935L255.473 225.913H259.536Z" fill="#A6C7F9"/>
<path d="M263.6 250.155H255.473L255.814 249.208L255.473 248.185H263.524L263.03 249.247L263.6 250.155Z" fill="#EBF2F9"/>
<path d="M259.536 248.185V250.155H255.473L255.814 249.208L255.473 248.185H259.536Z" fill="#A6C7F9"/>
<path d="M248.649 190.191H237.098L237.584 188.846L237.098 187.392H248.54L247.839 188.899L248.649 190.191Z" fill="#EBF2F9"/>
<path d="M242.874 187.392V190.191H237.098L237.584 188.846L237.098 187.392H242.874Z" fill="#A6C7F9"/>
<path d="M340.889 142.042L337.466 156.86H346.924L350.347 142.042H340.889Z" fill="white"/>
<path d="M479.895 253.163H-85.1022C-85.2777 253.163 -85.4207 253.021 -85.4207 252.845V252.819C-85.4207 252.644 -85.2777 252.502 -85.1022 252.502H479.895C480.07 252.502 480.213 252.644 480.213 252.819V252.845C480.213 253.021 480.07 253.163 479.895 253.163Z" fill="#283250"/>
</svg>
