<svg width="16" height="16" viewBox="0 0 16 16" fill="none" xmlns="http://www.w3.org/2000/svg">
<path d="M8.66667 5.33333C9.1971 5.33333 9.70581 5.54405 10.0809 5.91912C10.456 6.29419 10.6667 6.8029 10.6667 7.33333C10.6667 7.51014 10.7369 7.67971 10.8619 7.80474C10.987 7.92976 11.1565 8 11.3333 8C11.5101 8 11.6797 7.92976 11.8047 7.80474C11.9298 7.67971 12 7.51014 12 7.33333C12 6.44928 11.6488 5.60143 11.0237 4.97631C10.3986 4.35119 9.55072 4 8.66667 4C8.48986 4 8.32029 4.07024 8.19526 4.19526C8.07024 4.32029 8 4.48986 8 4.66667C8 4.84348 8.07024 5.01305 8.19526 5.13807C8.32029 5.2631 8.48986 5.33333 8.66667 5.33333Z" fill="#575555"/>
<path d="M8.66671 2.66683C9.90438 2.66683 11.0914 3.15849 11.9665 4.03366C12.8417 4.90883 13.3334 6.09582 13.3334 7.3335C13.3334 7.51031 13.4036 7.67988 13.5286 7.8049C13.6537 7.92992 13.8232 8.00016 14 8.00016C14.1768 8.00016 14.3464 7.92992 14.4714 7.8049C14.5965 7.67988 14.6667 7.51031 14.6667 7.3335C14.6667 5.7422 14.0346 4.21607 12.9093 3.09086C11.7841 1.96564 10.258 1.3335 8.66671 1.3335C8.4899 1.3335 8.32033 1.40373 8.1953 1.52876C8.07028 1.65378 8.00004 1.82335 8.00004 2.00016C8.00004 2.17697 8.07028 2.34654 8.1953 2.47157C8.32033 2.59659 8.4899 2.66683 8.66671 2.66683ZM14.5 10.6068C14.4634 10.4998 14.4001 10.4039 14.3161 10.3281C14.2321 10.2523 14.1302 10.1991 14.02 10.1735L10.02 9.26016C9.91146 9.23555 9.79845 9.23851 9.69132 9.26879C9.58418 9.29906 9.48633 9.35569 9.40671 9.4335C9.31337 9.52016 9.30671 9.52683 8.87337 10.3535C7.43551 9.69094 6.28337 8.53407 5.62671 7.0935C6.47337 6.66683 6.48004 6.66683 6.56671 6.56683C6.64451 6.4872 6.70114 6.38935 6.73142 6.28222C6.76169 6.17508 6.76466 6.06207 6.74004 5.9535L5.82671 2.00016C5.80114 1.88996 5.74795 1.78808 5.67214 1.7041C5.59633 1.62013 5.5004 1.55683 5.39337 1.52016C5.23768 1.46456 5.07691 1.42436 4.91337 1.40016C4.74487 1.36109 4.57293 1.33876 4.40004 1.3335C3.58671 1.3335 2.80669 1.65659 2.23158 2.2317C1.65647 2.80681 1.33337 3.58683 1.33337 4.40016C1.3369 7.12197 2.4197 9.73129 4.34431 11.6559C6.26892 13.5805 8.87823 14.6633 11.6 14.6668C12.0028 14.6668 12.4015 14.5875 12.7736 14.4334C13.1457 14.2793 13.4837 14.0534 13.7685 13.7686C14.0533 13.4839 14.2792 13.1458 14.4333 12.7737C14.5874 12.4017 14.6667 12.0029 14.6667 11.6002C14.6669 11.4305 14.6535 11.261 14.6267 11.0935C14.5987 10.9279 14.5563 10.7651 14.5 10.6068ZM11.6 13.3335C9.23131 13.3317 6.96011 12.39 5.28517 10.715C3.61023 9.04009 2.66847 6.76889 2.66671 4.40016C2.66846 3.94099 2.85165 3.50113 3.17633 3.17645C3.50101 2.85177 3.94087 2.66859 4.40004 2.66683H4.62004L5.33337 5.76016L4.97337 5.94683C4.40004 6.24683 3.94671 6.48683 4.18671 7.00683C4.57752 8.11322 5.20989 9.11865 6.03786 9.95008C6.86584 10.7815 7.86863 11.4181 8.97337 11.8135C9.53337 12.0402 9.75337 11.6202 10.0534 11.0402L10.2467 10.6735L13.3334 11.3802V11.6002C13.3316 12.0593 13.1484 12.4992 12.8238 12.8239C12.4991 13.1486 12.0592 13.3317 11.6 13.3335Z" fill="#575555"/>
</svg>
