<svg width="414" height="162" viewBox="0 0 414 162" fill="none" xmlns="http://www.w3.org/2000/svg">
<path d="M482 260.582C482 340.894 391.338 406 279.5 406C167.662 406 77 340.894 77 260.582C77 180.27 215.838 121 279.5 121C454.232 121 408.856 238.21 482 260.582Z" fill="#F79D31" fill-opacity="0.8"/>
<path d="M544 139.582C544 219.894 453.338 285 341.5 285C229.662 285 139 219.894 139 139.582C139 59.2697 277.838 0 341.5 0C516.232 0 470.856 117.21 544 139.582Z" fill="#F79D31" fill-opacity="0.3"/>
<path d="M459 183.744C459 273.356 348.414 346 212 346C75.5857 346 -35 273.356 -35 183.744C-35 94.1325 134.348 28 212 28C425.13 28 369.783 158.782 459 183.744Z" fill="#F79D31" fill-opacity="0.5"/>
<path d="M395 222.582C395 302.894 304.338 368 192.5 368C80.6623 368 -10 302.894 -10 222.582C-10 142.27 128.838 83 192.5 83C367.232 83 321.856 200.21 395 222.582Z" fill="#F79D31"/>
</svg>
