<svg width="28" height="23" viewBox="0 0 28 23" fill="none" xmlns="http://www.w3.org/2000/svg">
<path d="M2 10H14V12H2V10Z" fill="#575555"/>
<path d="M0 5H10V7H0V5Z" fill="#575555"/>
<path d="M27.9193 10.606L24.9193 3.606C24.8423 3.42608 24.7142 3.27273 24.5508 3.165C24.3875 3.05727 24.196 2.99989 24.0003 3H21.0003V1C21.0003 0.734784 20.895 0.48043 20.7074 0.292893C20.5199 0.105357 20.2656 0 20.0003 0H4.00033V2H19.0003V14.556C18.5447 14.8206 18.1459 15.1728 17.827 15.5922C17.5081 16.0117 17.2754 16.4902 17.1423 17H10.8583C10.6149 16.0573 10.0361 15.2358 9.23033 14.6894C8.42455 14.143 7.44715 13.9092 6.48133 14.0319C5.51552 14.1546 4.6276 14.6253 3.98401 15.3558C3.34042 16.0863 2.98535 17.0264 2.98535 18C2.98535 18.9736 3.34042 19.9137 3.98401 20.6442C4.6276 21.3747 5.51552 21.8454 6.48133 21.9681C7.44715 22.0908 8.42455 21.857 9.23033 21.3106C10.0361 20.7642 10.6149 19.9427 10.8583 19H17.1423C17.3599 19.8582 17.8574 20.6194 18.5561 21.1632C19.2549 21.7069 20.115 22.0021 21.0003 22.0021C21.8857 22.0021 22.7458 21.7069 23.4446 21.1632C24.1433 20.6194 24.6408 19.8582 24.8583 19H27.0003C27.2656 19 27.5199 18.8946 27.7074 18.7071C27.895 18.5196 28.0003 18.2652 28.0003 18V11C28.0004 10.8645 27.9728 10.7305 27.9193 10.606ZM7.00033 20C6.60477 20 6.21809 19.8827 5.88919 19.6629C5.5603 19.4432 5.30395 19.1308 5.15258 18.7654C5.0012 18.3999 4.96159 17.9978 5.03876 17.6098C5.11593 17.2219 5.30642 16.8655 5.58612 16.5858C5.86583 16.3061 6.22219 16.1156 6.61015 16.0384C6.99812 15.9613 7.40025 16.0009 7.7657 16.1522C8.13115 16.3036 8.44351 16.56 8.66327 16.8889C8.88304 17.2178 9.00033 17.6044 9.00033 18C8.99981 18.5303 8.78892 19.0387 8.41396 19.4136C8.03901 19.7886 7.53061 19.9995 7.00033 20ZM21.0003 5H23.3403L25.4843 10H21.0003V5ZM21.0003 20C20.6048 20 20.2181 19.8827 19.8892 19.6629C19.5603 19.4432 19.304 19.1308 19.1526 18.7654C19.0012 18.3999 18.9616 17.9978 19.0388 17.6098C19.1159 17.2219 19.3064 16.8655 19.5861 16.5858C19.8658 16.3061 20.2222 16.1156 20.6102 16.0384C20.9981 15.9613 21.4002 16.0009 21.7657 16.1522C22.1312 16.3036 22.4435 16.56 22.6633 16.8889C22.883 17.2178 23.0003 17.6044 23.0003 18C22.9998 18.5303 22.7889 19.0387 22.414 19.4136C22.039 19.7886 21.5306 19.9995 21.0003 20ZM26.0003 17H24.8583C24.6381 16.1434 24.1398 15.3842 23.4416 14.8413C22.7434 14.2983 21.8848 14.0025 21.0003 14V12H26.0003V17Z" fill="#575555"/>
</svg>
