<svg width="18" height="24" viewBox="0 0 18 24" fill="none" xmlns="http://www.w3.org/2000/svg">
<path d="M6.06675 19.2V8.4H4.26675V19.2H6.06675ZM9.96675 19.2V8.4H8.16675V19.2H9.96675ZM13.8667 19.2V8.4H12.0667V19.2H13.8667ZM15.1027 4.8C16.3987 4.8 17.4667 5.856 17.4667 7.2V20.4C17.4667 21.756 16.3987 22.8 15.1027 22.8C15.1027 23.496 14.5387 24 13.8667 24C13.2667 24 12.6667 23.496 12.6667 22.8H5.46675C5.46675 23.496 4.86675 24 4.26675 24C3.59475 24 3.03075 23.496 3.03075 22.8C1.73475 22.8 0.666748 21.756 0.666748 20.4V7.2C0.666748 5.856 1.73475 4.8 3.03075 4.8H5.46675V1.2C5.46675 0.504 6.01875 0 6.66675 0H11.4667C12.1147 0 12.6667 0.504 12.6667 1.2V4.8H15.1027ZM7.26675 1.8V4.8H10.8667V1.8H7.26675ZM15.1027 20.4V7.2H3.03075V20.4" fill="white"/>
</svg>
