<svg width="16" height="22" viewBox="0 0 16 22" fill="none" xmlns="http://www.w3.org/2000/svg">
<path d="M4.95 17.6V7.7H3.3V17.6H4.95ZM8.525 17.6V7.7H6.875V17.6H8.525ZM12.1 17.6V7.7H10.45V17.6H12.1ZM13.233 4.4C14.421 4.4 15.4 5.368 15.4 6.6V18.7C15.4 19.943 14.421 20.9 13.233 20.9C13.233 21.538 12.716 22 12.1 22C11.55 22 11 21.538 11 20.9H4.4C4.4 21.538 3.85 22 3.3 22C2.684 22 2.167 21.538 2.167 20.9C0.979 20.9 0 19.943 0 18.7V6.6C0 5.368 0.979 4.4 2.167 4.4H4.4V1.1C4.4 0.462 4.906 0 5.5 0H9.9C10.494 0 11 0.462 11 1.1V4.4H13.233ZM6.05 1.65V4.4H9.35V1.65H6.05ZM13.233 18.7V6.6H2.167V18.7" fill="#575555"/>
</svg>
