<svg width="245" height="200" viewBox="0 0 245 200" fill="none" xmlns="http://www.w3.org/2000/svg">
<g opacity="0.2">
<path d="M17.4332 90.9004H122.031V109.08H17.4332V90.9004Z" fill="#575555"/>
<path d="M0 45.4502H87.1647V63.6303H0V45.4502Z" fill="#575555"/>
<path d="M243.356 96.4089L217.206 32.7786C216.535 31.1432 215.418 29.7492 213.994 28.7699C212.57 27.7907 210.902 27.2691 209.196 27.2701H183.047V9.09003C183.047 6.6792 182.128 4.36712 180.494 2.66241C178.859 0.957699 176.642 0 174.33 0H34.8666V18.1801H165.614V132.314C161.642 134.72 158.166 137.921 155.386 141.734C152.607 145.547 150.578 149.896 149.418 154.531H94.6441C92.5226 145.962 87.4772 138.494 80.4537 133.527C73.4301 128.56 64.9106 126.435 56.4922 127.55C48.0737 128.665 40.3341 132.944 34.7243 139.584C29.1145 146.225 26.0195 154.771 26.0195 163.621C26.0195 172.47 29.1145 181.016 34.7243 187.657C40.3341 194.297 48.0737 198.576 56.4922 199.691C64.9106 200.806 73.4301 198.681 80.4537 193.714C87.4772 188.747 92.5226 181.279 94.6441 172.711H149.418C151.315 180.512 155.651 187.431 161.742 192.374C167.832 197.316 175.329 200 183.047 200C190.764 200 198.261 197.316 204.352 192.374C210.442 187.431 214.779 180.512 216.675 172.711H235.345C237.657 172.711 239.874 171.753 241.509 170.048C243.144 168.343 244.062 166.031 244.062 163.621V99.9903C244.062 98.7589 243.822 97.5403 243.356 96.4089ZM61.016 181.801C57.5681 181.801 54.1976 180.734 51.3308 178.737C48.464 176.739 46.2295 173.9 44.9101 170.578C43.5906 167.256 43.2454 163.6 43.918 160.074C44.5907 156.547 46.251 153.308 48.6891 150.765C51.1271 148.223 54.2333 146.491 57.615 145.79C60.9967 145.088 64.5018 145.448 67.6873 146.824C70.8727 148.2 73.5954 150.531 75.511 153.52C77.4265 156.51 78.4489 160.025 78.4489 163.621C78.4443 168.441 76.6062 173.062 73.3379 176.47C70.0695 179.879 65.6381 181.796 61.016 181.801ZM183.047 45.4502H203.443L222.131 90.9003H183.047V45.4502ZM183.047 181.801C179.599 181.801 176.228 180.734 173.361 178.737C170.495 176.739 168.26 173.9 166.941 170.578C165.621 167.256 165.276 163.6 165.949 160.074C166.621 156.547 168.282 153.308 170.72 150.765C173.158 148.223 176.264 146.491 179.646 145.79C183.027 145.088 186.532 145.448 189.718 146.824C192.903 148.2 195.626 150.531 197.542 153.52C199.457 156.51 200.479 160.025 200.479 163.621C200.475 168.441 198.637 173.062 195.368 176.47C192.1 179.879 187.669 181.796 183.047 181.801ZM226.629 154.531H216.675C214.755 146.744 210.411 139.843 204.326 134.908C198.24 129.972 190.756 127.283 183.047 127.26V109.08H226.629V154.531Z" fill="#575555"/>
</g>
</svg>
