<svg width="19" height="22" viewBox="0 0 19 22" fill="none" xmlns="http://www.w3.org/2000/svg">
<path d="M0.785714 22C0.57733 22 0.377481 21.9172 0.230131 21.7699C0.0827805 21.6225 0 21.4227 0 21.2143C0 21.0059 0.0827805 20.8061 0.230131 20.6587C0.377481 20.5114 0.57733 20.4286 0.785714 20.4286H2.35714V18.8571C2.35682 17.5229 2.73395 16.2159 3.44496 15.0869C4.15598 13.958 5.17187 13.0532 6.37529 12.4771C6.831 12.2587 7.07143 11.8847 7.07143 11.55V10.45C7.07143 10.1153 6.82943 9.74129 6.37529 9.52286C5.17187 8.94678 4.15598 8.04201 3.44496 6.91306C2.73395 5.78411 2.35682 4.47705 2.35714 3.14286V1.57143H0.785714C0.57733 1.57143 0.377481 1.48865 0.230131 1.3413C0.0827805 1.19395 0 0.994099 0 0.785714C0 0.57733 0.0827805 0.37748 0.230131 0.23013C0.377481 0.0827803 0.57733 0 0.785714 0H18.0714C18.2798 0 18.4797 0.0827803 18.627 0.23013C18.7744 0.37748 18.8571 0.57733 18.8571 0.785714C18.8571 0.994099 18.7744 1.19395 18.627 1.3413C18.4797 1.48865 18.2798 1.57143 18.0714 1.57143H16.5V3.14286C16.5003 4.47705 16.1232 5.78411 15.4122 6.91306C14.7012 8.04201 13.6853 8.94678 12.4819 9.52286C12.0261 9.74129 11.7857 10.1153 11.7857 10.45V11.55C11.7857 11.8847 12.0277 12.2587 12.4819 12.4771C13.6853 13.0532 14.7012 13.958 15.4122 15.0869C16.1232 16.2159 16.5003 17.5229 16.5 18.8571V20.4286H18.0714C18.2798 20.4286 18.4797 20.5114 18.627 20.6587C18.7744 20.8061 18.8571 21.0059 18.8571 21.2143C18.8571 21.4227 18.7744 21.6225 18.627 21.7699C18.4797 21.9172 18.2798 22 18.0714 22H0.785714ZM3.92857 1.57143V3.14286C3.92857 3.98671 4.11714 4.785 4.45814 5.5H14.399C14.7384 4.785 14.9286 3.98671 14.9286 3.14286V1.57143H3.92857ZM8.64286 11.55C8.64286 12.6516 7.89171 13.4923 7.05414 13.8946C6.11803 14.3426 5.32779 15.0463 4.77471 15.9245C4.22163 16.8026 3.92829 17.8193 3.92857 18.8571C3.92857 18.8571 5.28943 16.8159 8.64286 16.5314V11.55ZM10.2143 11.55V16.5314C13.5677 16.8159 14.9286 18.8571 14.9286 18.8571C14.9289 17.8193 14.6355 16.8026 14.0824 15.9245C13.5294 15.0463 12.7391 14.3426 11.803 13.8946C10.9654 13.4923 10.2143 12.6531 10.2143 11.5516V11.55Z" fill="#575555"/>
</svg>
