<svg width="173" height="200" viewBox="0 0 173 200" fill="none" xmlns="http://www.w3.org/2000/svg">
<path opacity="0.2" d="M7.17213 200C5.26996 200 3.44571 199.247 2.10067 197.908C0.755634 196.568 0 194.752 0 192.857C0 190.963 0.755634 189.146 2.10067 187.806C3.44571 186.467 5.26996 185.714 7.17213 185.714H21.5164V171.429C21.5134 159.3 24.9559 147.417 31.4462 137.154C37.9365 126.891 47.2097 118.666 58.1947 113.429C62.3545 111.443 64.5492 108.043 64.5492 105V95C64.5492 91.9571 62.3402 88.5571 58.1947 86.5714C47.2097 81.3344 37.9365 73.1092 31.4462 62.846C24.9559 52.5829 21.5134 40.7005 21.5164 28.5714V14.2857H7.17213C5.26996 14.2857 3.44571 13.5332 2.10067 12.1936C0.755634 10.8541 0 9.03726 0 7.14286C0 5.24845 0.755634 3.43164 2.10067 2.09209C3.44571 0.752549 5.26996 0 7.17213 0H164.959C166.861 0 168.685 0.752549 170.03 2.09209C171.376 3.43164 172.131 5.24845 172.131 7.14286C172.131 9.03726 171.376 10.8541 170.03 12.1936C168.685 13.5332 166.861 14.2857 164.959 14.2857H150.615V28.5714C150.618 40.7005 147.175 52.5829 140.685 62.846C134.195 73.1092 124.921 81.3344 113.936 86.5714C109.777 88.5571 107.582 91.9571 107.582 95V105C107.582 108.043 109.791 111.443 113.936 113.429C124.921 118.666 134.195 126.891 140.685 137.154C147.175 147.417 150.618 159.3 150.615 171.429V185.714H164.959C166.861 185.714 168.685 186.467 170.03 187.806C171.376 189.146 172.131 190.963 172.131 192.857C172.131 194.752 171.376 196.568 170.03 197.908C168.685 199.247 166.861 200 164.959 200H7.17213ZM35.8607 14.2857V28.5714C35.8607 36.2429 37.582 43.5 40.6947 50H131.436C134.535 43.5 136.27 36.2429 136.27 28.5714V14.2857H35.8607ZM78.8934 105C78.8934 115.014 72.0369 122.657 64.3914 126.314C55.8464 130.387 48.6329 136.785 43.5843 144.768C38.5357 152.751 35.858 161.994 35.8607 171.429C35.8607 171.429 48.2828 152.871 78.8934 150.286V105ZM93.2377 105V150.286C123.848 152.871 136.27 171.429 136.27 171.429C136.273 161.994 133.595 152.751 128.547 144.768C123.498 136.785 116.285 130.387 107.74 126.314C100.094 122.657 93.2377 115.029 93.2377 105.014V105Z" fill="#575555"/>
</svg>
