<svg width="135" height="200" viewBox="0 0 135 200" fill="none" xmlns="http://www.w3.org/2000/svg">
<path opacity="0.2" d="M43.1507 160V70H28.7671V160H43.1507ZM74.3151 160V70H59.9315V160H74.3151ZM105.479 160V70H91.0959V160H105.479ZM115.356 40C125.712 40 134.247 48.8 134.247 60V170C134.247 181.3 125.712 190 115.356 190C115.356 195.8 110.849 200 105.479 200C100.685 200 95.8904 195.8 95.8904 190H38.3562C38.3562 195.8 33.5616 200 28.7671 200C23.3973 200 18.8904 195.8 18.8904 190C8.53424 190 0 181.3 0 170V60C0 48.8 8.53424 40 18.8904 40H38.3562V10C38.3562 4.2 42.7671 0 47.9452 0H86.3014C91.4795 0 95.8904 4.2 95.8904 10V40H115.356ZM52.7397 15V40H81.5069V15H52.7397ZM115.356 170V60H18.8904V170" fill="#575555"/>
</svg>
