<svg width="26" height="26" viewBox="0 0 26 26" fill="none" xmlns="http://www.w3.org/2000/svg">
<path d="M17.5002 7H17.5152" stroke="#F79D31" stroke-width="1.5" stroke-linecap="round" stroke-linejoin="round"/>
<path d="M20.5 1H5.5C3.01472 1 1 3.01472 1 5.5V20.5C1 22.9853 3.01472 25 5.5 25H20.5C22.9853 25 25 22.9853 25 20.5V5.5C25 3.01472 22.9853 1 20.5 1Z" stroke="#F79D31" stroke-width="1.5" stroke-linecap="round" stroke-linejoin="round"/>
<path d="M1 17.4999L7 11.4999C7.68409 10.8417 8.46008 10.4951 9.25 10.4951C10.0399 10.4951 10.8159 10.8417 11.5 11.4999L19 18.9999" stroke="#F79D31" stroke-width="1.5" stroke-linecap="round" stroke-linejoin="round"/>
<path d="M16.0005 15.9999L17.5005 14.4999C18.1846 13.8417 18.9606 13.4951 19.7505 13.4951C20.5404 13.4951 21.3164 13.8417 22.0005 14.4999L25.0005 17.4999" stroke="#F79D31" stroke-width="1.5" stroke-linecap="round" stroke-linejoin="round"/>
</svg>
