<svg width="33" height="25" viewBox="0 0 33 25" fill="none" xmlns="http://www.w3.org/2000/svg">
<path d="M6.44879 24.5494V22.9164C6.44879 22.2903 6.06767 21.8822 5.41442 21.8822C5.08785 21.8822 4.73401 21.991 4.48902 22.3449C4.29859 22.0454 4.02645 21.8822 3.61818 21.8822C3.34592 21.8822 3.0739 21.9637 2.85607 22.2632V21.9366H2.28452V24.5494H2.85607V23.1069C2.85607 22.6443 3.10105 22.4264 3.48217 22.4264C3.86304 22.4264 4.05372 22.6714 4.05372 23.1069V24.5494H4.62528V23.1069C4.62528 22.6443 4.89729 22.4264 5.25113 22.4264C5.63225 22.4264 5.82269 22.6714 5.82269 23.1069V24.5494H6.44879ZM14.9131 21.9366H13.9878V21.1473H13.4163V21.9366H12.8991V22.4536H13.4162V23.6513C13.4162 24.2501 13.6611 24.6038 14.3144 24.6038C14.5594 24.6038 14.8314 24.5222 15.0221 24.4134L14.8587 23.9234C14.6954 24.0322 14.505 24.0595 14.3688 24.0595C14.0967 24.0595 13.9878 23.8962 13.9878 23.624V22.4536H14.9131V21.9366ZM19.7578 21.882C19.4312 21.882 19.2135 22.0454 19.0774 22.2632V21.9366H18.5058V24.5494H19.0774V23.0797C19.0774 22.6443 19.2678 22.3993 19.6216 22.3993C19.7305 22.3993 19.8666 22.4266 19.9755 22.4537L20.1388 21.9094C20.0299 21.8822 19.8666 21.8822 19.7578 21.8822V21.882ZM12.4365 22.1543C12.1642 21.9637 11.7832 21.8822 11.3749 21.8822C10.7218 21.8822 10.2864 22.2087 10.2864 22.7259C10.2864 23.1614 10.6129 23.4063 11.1845 23.488L11.4566 23.5152C11.756 23.5695 11.9193 23.6513 11.9193 23.7874C11.9193 23.9778 11.7016 24.1139 11.3205 24.1139C10.9395 24.1139 10.6401 23.9778 10.4495 23.8418L10.1774 24.2772C10.4768 24.4949 10.8851 24.6038 11.2932 24.6038C12.0553 24.6038 12.4909 24.2501 12.4909 23.7601C12.4909 23.2974 12.137 23.0524 11.5926 22.9708L11.3205 22.9436C11.0755 22.9163 10.8851 22.862 10.8851 22.6987C10.8851 22.5081 11.0755 22.3993 11.3749 22.3993C11.7016 22.3993 12.0282 22.5353 12.1915 22.617L12.4365 22.1543ZM27.6235 21.8822C27.2968 21.8822 27.0791 22.0454 26.943 22.2632V21.9366H26.3714V24.5494H26.943V23.0797C26.943 22.6443 27.1335 22.3993 27.4873 22.3993C27.5962 22.3993 27.7324 22.4266 27.8412 22.4537L28.0045 21.9094C27.8956 21.8822 27.7324 21.8822 27.6235 21.8822ZM20.3293 23.243C20.3293 24.0322 20.8736 24.6038 21.7174 24.6038C22.0984 24.6038 22.3706 24.5222 22.6427 24.3045L22.3706 23.8418C22.1528 24.0051 21.9351 24.0867 21.6901 24.0867C21.2275 24.0867 20.9009 23.7601 20.9009 23.243C20.9009 22.7531 21.2275 22.4264 21.6901 22.3993C21.9351 22.3993 22.1528 22.4809 22.3706 22.6443L22.6427 22.1816C22.3706 21.9637 22.0984 21.8822 21.7174 21.8822C20.8736 21.8822 20.3293 22.4537 20.3293 23.243ZM25.6094 23.243V21.9366H25.0379V22.2632C24.8473 22.0183 24.5752 21.8822 24.2213 21.8822C23.4865 21.8822 22.915 22.4537 22.915 23.243C22.915 24.0322 23.4865 24.6038 24.2213 24.6038C24.6023 24.6038 24.8746 24.4678 25.0379 24.2228V24.5494H25.6094V23.243ZM23.5137 23.243C23.5137 22.7803 23.8131 22.3993 24.3029 22.3993C24.7656 22.3993 25.0923 22.7531 25.0923 23.243C25.0923 23.7057 24.7656 24.0867 24.3029 24.0867C23.8131 24.0594 23.5137 23.7057 23.5137 23.243ZM16.6823 21.8822C15.9202 21.8822 15.3758 22.4264 15.3758 23.243C15.3758 24.0595 15.9201 24.6038 16.7095 24.6038C17.0905 24.6038 17.4716 24.4949 17.771 24.2501L17.4987 23.8418C17.281 24.0051 17.0089 24.1139 16.7367 24.1139C16.3829 24.1139 16.029 23.9507 15.9473 23.4878H17.8798V23.2703C17.9071 22.4264 17.4171 21.8822 16.6822 21.8822H16.6823ZM16.6823 22.372C17.036 22.372 17.2811 22.5898 17.3354 22.9981H15.9746C16.0291 22.6443 16.274 22.372 16.6823 22.372ZM30.8623 23.243V20.9023H30.2907V22.2632C30.1002 22.0183 29.828 21.8822 29.4742 21.8822C28.7393 21.8822 28.1678 22.4537 28.1678 23.243C28.1678 24.0322 28.7393 24.6038 29.4742 24.6038C29.8553 24.6038 30.1274 24.4678 30.2907 24.2228V24.5494H30.8623V23.243ZM28.7666 23.243C28.7666 22.7803 29.0659 22.3993 29.5559 22.3993C30.0186 22.3993 30.3451 22.7531 30.3451 23.243C30.3451 23.7057 30.0186 24.0867 29.5559 24.0867C29.0659 24.0594 28.7666 23.7057 28.7666 23.243ZM9.66027 23.243V21.9366H9.08872V22.2632C8.89816 22.0183 8.62602 21.8822 8.27218 21.8822C7.53734 21.8822 6.96579 22.4537 6.96579 23.243C6.96579 24.0322 7.53734 24.6038 8.27218 24.6038C8.6533 24.6038 8.92543 24.4678 9.08872 24.2228V24.5494H9.66027V23.243ZM7.53734 23.243C7.53734 22.7803 7.83676 22.3993 8.32661 22.3993C8.7893 22.3993 9.11599 22.7531 9.11599 23.243C9.11599 23.7057 8.7893 24.0867 8.32661 24.0867C7.83676 24.0594 7.53734 23.7057 7.53734 23.243Z" fill="black"/>
<path d="M12.2459 2.0957H20.8192V17.5005H12.2459V2.0957Z" fill="#FF5F00"/>
<path d="M12.7903 9.79858C12.7903 6.66868 14.26 3.8925 16.5189 2.09614C14.8588 0.789751 12.7632 0.000488281 10.477 0.000488281C5.0606 0.000488281 0.678741 4.38235 0.678741 9.79858C0.678741 15.2147 5.0606 19.5967 10.4768 19.5967C12.763 19.5967 14.8587 18.8074 16.5189 17.5009C14.26 15.7318 12.7903 12.9285 12.7903 9.79858Z" fill="#EB001B"/>
<path d="M32.3864 9.79809C32.3864 15.2142 28.0045 19.5962 22.5883 19.5962C20.3021 19.5962 18.2064 18.8069 16.5462 17.5004C18.8324 15.7042 20.2749 12.928 20.2749 9.79809C20.2749 6.66819 18.8051 3.89201 16.5462 2.09565C18.2063 0.789263 20.3021 0 22.5883 0C28.0045 0 32.3865 4.40914 32.3865 9.79809H32.3864Z" fill="#F79E1B"/>
</svg>
