<svg width="120" height="120" viewBox="0 0 120 120" fill="none" xmlns="http://www.w3.org/2000/svg">
<mask id="mask0_15_182" style="mask-type:alpha" maskUnits="userSpaceOnUse" x="0" y="0" width="120" height="120">
<ellipse cx="60" cy="60" rx="60" ry="60" fill="#121212"/>
</mask>
<g mask="url(#mask0_15_182)">
<circle cx="60" cy="60" r="60" fill="#121212"/>
<path d="M59.5 30C53.0227 30 47.9624 32.3661 44.3189 37.0982C40.6754 41.8304 38.8537 47.8795 38.8537 55.2455C38.8087 64.3973 41.7775 71.6518 47.7599 77.0089C48.5246 77.7232 48.7945 78.6384 48.5696 79.7545L47.0178 82.9688C46.523 84.0402 45.792 84.8772 44.8249 85.4799C43.8578 86.0826 41.8224 86.942 38.7188 88.058C38.5838 88.1027 35.7388 89.0179 30.1836 90.8036C24.6284 92.5893 21.6709 93.5714 21.3111 93.75C17.5327 95.3125 15.0587 96.942 13.8892 98.6384C12.6297 101.451 12 108.571 12 120H107C107 108.571 106.37 101.451 105.111 98.6384C103.941 96.942 101.467 95.3125 97.6889 93.75C97.3291 93.5714 94.3716 92.5893 88.8164 90.8036C83.2612 89.0179 80.4162 88.1027 80.2812 88.058C77.1776 86.942 75.1422 86.0826 74.1751 85.4799C73.208 84.8772 72.477 84.0402 71.9822 82.9688L70.4304 79.7545C70.2055 78.6384 70.4754 77.7232 71.2401 77.0089C77.2225 71.6518 80.1913 64.3973 80.1463 55.2455C80.1463 47.8795 78.3246 41.8304 74.6811 37.0982C71.0376 32.3661 65.9773 30 59.5 30Z" fill="white"/>
</g>
</svg>
