<svg width="190" height="402" viewBox="0 0 190 402" fill="none" xmlns="http://www.w3.org/2000/svg">
<path d="M48 10C-24.875 10 -84 66.2742 -84 135.583C-84 215.333 4 341.714 36.3125 385.366C37.6538 387.208 39.4117 388.708 41.4429 389.742C43.4741 390.776 45.7209 391.314 48 391.314C50.2791 391.314 52.526 390.776 54.5571 389.742C56.5883 388.708 58.3462 387.208 59.6875 385.366C92 341.732 180 215.398 180 135.583C180 66.2742 120.875 10 48 10Z" stroke="#EBDEFE" stroke-width="20" stroke-linecap="round" stroke-linejoin="round"/>
<path d="M47.9998 186C72.3003 186 91.9998 166.301 91.9998 142C91.9998 117.699 72.3003 98 47.9998 98C23.6992 98 3.99976 117.699 3.99976 142C3.99976 166.301 23.6992 186 47.9998 186Z" stroke="#EBDEFE" stroke-width="20" stroke-linecap="round" stroke-linejoin="round"/>
</svg>
