<svg width="221" height="157" viewBox="0 0 221 157" fill="none" xmlns="http://www.w3.org/2000/svg">
<path d="M112.868 155.93C119.515 155.93 124.903 150.549 124.903 143.912C124.903 137.274 119.515 131.894 112.868 131.894C106.221 131.894 100.833 137.274 100.833 143.912C100.833 150.549 106.221 155.93 112.868 155.93Z" fill="#F79D31"/>
<path d="M184.768 155.255C191.501 153.235 198.659 151.13 203.999 146.33C208.771 142.04 211.992 135.49 210.016 129.057C208.043 122.638 202.134 118.357 196.033 116.228C192.573 115.021 188.953 114.351 185.334 113.824C181.401 113.252 177.45 112.784 173.5 112.333C157.509 110.506 141.458 109.391 125.347 108.985C117.397 108.786 109.449 108.79 101.498 108.906C94.3975 109.009 86.9192 109.006 80.3319 105.992C75.2094 103.649 70.5602 99.3855 69.1329 93.7828C67.4853 87.3154 70.5243 80.7292 74.8837 76.0453C77.1816 73.5763 79.8672 71.4983 82.6377 69.5876C85.6433 67.5147 88.7536 65.5886 91.9313 63.7907C98.19 60.2513 104.733 57.2391 111.493 54.7854C114.828 53.5746 118.212 52.53 121.626 51.5663C124.508 50.7525 127.4 49.9376 130.186 48.8289C135.571 46.6856 140.693 43.0551 142.063 37.1032C143.36 31.4622 141.172 25.3384 137.336 21.1478C132.898 16.2996 126.206 14.1743 119.791 13.8304C112.588 13.4444 105.552 15.2444 98.7818 17.5288C91.5614 19.9653 84.4967 22.7669 77.1238 24.7404C69.8125 26.6956 62.3598 28.0789 54.8332 28.8779C51.1488 29.2697 47.3529 29.712 43.6465 29.4121C40.5402 29.1608 37.4498 28.2485 35.1605 26.0472C33.1976 24.1596 32.0282 21.5655 32.4302 18.8279C32.5033 18.3307 33.2597 18.5421 33.1871 19.0363C32.6977 22.3687 34.9662 25.4394 37.7617 27.0124C40.9924 28.8303 44.9238 28.8328 48.5207 28.6249C56.3199 28.1545 64.0663 27.0363 71.6796 25.2819C79.1605 23.5757 86.3742 21.1366 93.5798 18.5312C100.423 16.0566 107.42 13.6415 114.731 13.1055C121.074 12.6404 127.748 13.5633 133.274 16.8737C138.131 19.7831 141.703 24.635 142.841 30.2027C143.953 35.6434 142.413 41.1195 138.288 44.9162C134.018 48.8472 128.163 50.5278 122.706 52.0757C115.785 54.0389 109.013 56.3338 102.457 59.3134C95.8124 62.3252 89.4398 65.9027 83.4098 70.0063C77.5893 73.9781 71.8452 78.9756 70.0043 86.0612C69.1468 89.3617 69.3051 92.8623 70.7399 95.9798C72.0157 98.7518 74.1168 101.083 76.5645 102.882C82.4045 107.173 89.7649 108.054 96.8191 108.142C104.742 108.24 112.665 107.973 120.59 108.103C136.742 108.368 152.861 109.349 168.946 111.048C172.977 111.474 177.002 111.945 181.023 112.461C184.639 112.925 188.267 113.386 191.823 114.21C198.145 115.675 204.296 118.492 208.225 123.845C209.969 126.165 211.05 128.914 211.351 131.799C211.626 134.81 210.888 137.826 209.525 140.504C206.508 146.433 200.856 150.203 194.854 152.68C191.639 154.007 188.305 155.012 184.977 156.01C184.492 156.156 184.285 155.4 184.768 155.255L184.768 155.255Z" fill="#F2F2F2"/>
<path d="M32.9372 25.1685C36.4052 25.1685 39.2165 22.3612 39.2165 18.8982C39.2165 15.4352 36.4052 12.6279 32.9372 12.6279C29.4692 12.6279 26.6578 15.4352 26.6578 18.8982C26.6578 22.3612 29.4692 25.1685 32.9372 25.1685Z" fill="#F2F2F2"/>
<path d="M76.5003 37.0562C79.9683 37.0562 82.7797 34.2489 82.7797 30.7859C82.7797 27.3229 79.9683 24.5156 76.5003 24.5156C73.0324 24.5156 70.221 27.3229 70.221 30.7859C70.221 34.2489 73.0324 37.0562 76.5003 37.0562Z" fill="#F2F2F2"/>
<path d="M113.391 13.2812C116.859 13.2812 119.671 10.474 119.671 7.01099C119.671 3.54801 116.859 0.740723 113.391 0.740723C109.923 0.740723 107.112 3.54801 107.112 7.01099C107.112 10.474 109.923 13.2812 113.391 13.2812Z" fill="#F2F2F2"/>
<path d="M136.416 39.9299C139.884 39.9299 142.695 37.1226 142.695 33.6597C142.695 30.1967 139.884 27.3894 136.416 27.3894C132.948 27.3894 130.136 30.1967 130.136 33.6597C130.136 37.1226 132.948 39.9299 136.416 39.9299Z" fill="#F2F2F2"/>
<path d="M105.28 70.7585C108.748 70.7585 111.56 67.9513 111.56 64.4883C111.56 61.0253 108.748 58.218 105.28 58.218C101.812 58.218 99.0011 61.0253 99.0011 64.4883C99.0011 67.9513 101.812 70.7585 105.28 70.7585Z" fill="#F2F2F2"/>
<path d="M65.7733 85.6504C69.2413 85.6504 72.0526 82.8431 72.0526 79.3801C72.0526 75.9172 69.2413 73.1099 65.7733 73.1099C62.3053 73.1099 59.494 75.9172 59.494 79.3801C59.494 82.8431 62.3053 85.6504 65.7733 85.6504Z" fill="#F2F2F2"/>
<path d="M107.636 108.903C111.104 108.903 113.915 106.096 113.915 102.633C113.915 99.1696 111.104 96.3623 107.636 96.3623C104.168 96.3623 101.356 99.1696 101.356 102.633C101.356 106.096 104.168 108.903 107.636 108.903Z" fill="#F2F2F2"/>
<path d="M152.638 121.966C156.106 121.966 158.917 119.158 158.917 115.695C158.917 112.232 156.106 109.425 152.638 109.425C149.17 109.425 146.358 112.232 146.358 115.695C146.358 119.158 149.17 121.966 152.638 121.966Z" fill="#F2F2F2"/>
<path d="M205.227 119.092C208.695 119.092 211.506 116.285 211.506 112.822C211.506 109.359 208.695 106.552 205.227 106.552C201.759 106.552 198.948 109.359 198.948 112.822C198.948 116.285 201.759 119.092 205.227 119.092Z" fill="#F2F2F2"/>
<path d="M111.579 18.5075C92.7695 18.6402 77.3683 33.9036 77.1011 52.6847C77.0986 52.8581 77.0975 54.0774 77.0976 55.672C77.0977 58.0102 78.0279 60.2525 79.6836 61.9059C81.3392 63.5593 83.5848 64.4883 85.9263 64.4885C87.0871 64.4883 88.2364 64.2596 89.3086 63.8157C90.3808 63.3717 91.3549 62.7212 92.1752 61.9011C92.9955 61.0811 93.646 60.1077 94.0894 59.0366C94.5329 57.9654 94.7606 56.8176 94.7596 55.6585C94.7587 54.5737 94.7581 53.8229 94.7581 53.7768C94.7575 50.8742 95.5136 48.0215 96.952 45.4992C98.3904 42.9769 100.462 40.8719 102.962 39.3913C105.462 37.9108 108.305 37.1056 111.212 37.0551C114.118 37.0045 116.987 37.7104 119.538 39.1031C122.088 40.4958 124.231 42.5275 125.757 44.9982C127.282 47.469 128.138 50.2937 128.238 53.1946C128.339 56.0955 127.681 58.9725 126.331 61.5427C124.98 64.113 122.983 66.2878 120.535 67.8534L120.538 67.8571C120.538 67.8571 107.972 75.9352 104.141 87.0168L104.144 87.0176C103.47 89.2878 103.129 91.6433 103.131 94.011C103.131 94.9843 103.188 103.5 103.299 110.412C103.337 112.797 104.314 115.071 106.016 116.744C107.719 118.417 110.012 119.354 112.401 119.353C113.601 119.353 114.79 119.116 115.898 118.656C117.006 118.195 118.012 117.521 118.858 116.671C119.704 115.821 120.374 114.812 120.828 113.702C121.282 112.593 121.512 111.405 121.505 110.206C121.466 103.876 121.445 96.5055 121.445 95.9705C121.445 89.166 128.019 82.3863 133.419 77.965C139.637 72.8739 144.112 65.9358 145.909 58.1095C146.306 56.4981 146.526 54.8481 146.563 53.189C146.563 48.6134 145.656 44.0829 143.895 39.8588C142.134 35.6346 139.553 31.8002 136.301 28.5764C133.049 25.3527 129.191 22.8033 124.948 21.0752C120.705 19.3471 116.161 18.4744 111.579 18.5075Z" fill="#F79D31"/>
<path d="M220.688 156.259H0.310629C0.228162 156.259 0.149157 156.226 0.0909285 156.168C0.0327003 156.11 0 156.031 0 155.948C0 155.866 0.0327003 155.787 0.0909285 155.729C0.149157 155.67 0.228162 155.637 0.310629 155.637H220.688C220.77 155.637 220.85 155.67 220.908 155.728C220.966 155.787 220.999 155.866 220.999 155.948C220.999 156.031 220.966 156.11 220.908 156.168C220.85 156.227 220.77 156.259 220.688 156.259Z" fill="#333E57"/>
<path d="M164.426 72.0638C168.761 72.0638 172.275 68.5547 172.275 64.226C172.275 59.8973 168.761 56.3882 164.426 56.3882C160.091 56.3882 156.577 59.8973 156.577 64.226C156.577 68.5547 160.091 72.0638 164.426 72.0638Z" fill="#313131"/>
<path d="M149.921 152.828H146.714L145.188 140.474H149.922L149.921 152.828Z" fill="#A0616A"/>
<path d="M144.422 151.913H150.608V155.802H140.527C140.527 155.292 140.628 154.786 140.824 154.314C141.019 153.842 141.306 153.413 141.668 153.052C142.03 152.691 142.459 152.405 142.932 152.209C143.404 152.014 143.911 151.913 144.422 151.913Z" fill="#313131"/>
<path d="M174.777 152.828H171.57L170.044 140.474H174.778L174.777 152.828Z" fill="#A0616A"/>
<path d="M169.278 151.913H175.464V155.802H165.383C165.383 155.292 165.484 154.786 165.679 154.314C165.875 153.842 166.162 153.413 166.524 153.052C166.885 152.691 167.315 152.405 167.787 152.209C168.26 152.014 168.766 151.913 169.278 151.913Z" fill="#313131"/>
<path d="M163.233 72.1098C166.782 72.1098 169.659 69.2369 169.659 65.693C169.659 62.149 166.782 59.2761 163.233 59.2761C159.684 59.2761 156.807 62.149 156.807 65.693C156.807 69.2369 159.684 72.1098 163.233 72.1098Z" fill="#A0616A"/>
<path d="M167.063 92.8106L169.938 86.2137C170.637 84.6662 170.837 82.9404 170.511 81.2744C170.185 79.6084 169.35 78.0845 168.12 76.9128C167.867 76.6635 167.599 76.4305 167.317 76.2153C165.898 75.107 164.149 74.5029 162.348 74.4988C161.137 74.5035 159.941 74.769 158.842 75.2773C158.748 75.3191 158.656 75.3636 158.562 75.408C158.382 75.4942 158.204 75.5882 158.031 75.6849C156.905 76.3307 155.946 77.2318 155.233 78.3155C154.519 79.3992 154.071 80.6352 153.923 81.9238L152.654 92.5415C152.335 93.3749 140.949 123.472 144.931 146.45C144.973 146.695 145.093 146.921 145.273 147.093C145.453 147.266 145.683 147.376 145.93 147.409L149.967 147.958C150.262 147.998 150.561 147.925 150.804 147.754C151.048 147.583 151.217 147.326 151.278 147.035L158.052 114.793C158.094 114.593 158.202 114.412 158.359 114.281C158.516 114.149 158.713 114.074 158.918 114.067C159.123 114.06 159.324 114.122 159.49 114.242C159.655 114.363 159.775 114.536 159.831 114.733L169.402 148.639C169.47 148.886 169.617 149.103 169.821 149.258C170.025 149.413 170.274 149.496 170.53 149.496C170.606 149.496 170.682 149.489 170.757 149.475L175.689 148.527C175.976 148.474 176.232 148.315 176.408 148.083C176.584 147.85 176.666 147.56 176.639 147.27C175.914 139.2 172.063 98.7751 167.063 92.8106Z" fill="#313131"/>
<path d="M138.259 71.0328C138.215 71.4143 138.254 71.8009 138.376 72.1654C138.497 72.5299 138.697 72.8635 138.961 73.1425C139.225 73.4216 139.548 73.6394 139.905 73.7806C140.263 73.9218 140.647 73.983 141.031 73.9598L144.623 82.5795L147.34 78.5575L143.513 70.9888C143.431 70.3473 143.116 69.7581 142.629 69.3327C142.141 68.9073 141.514 68.6753 140.866 68.6808C140.219 68.6862 139.596 68.9286 139.115 69.3621C138.635 69.7956 138.33 70.3901 138.259 71.0328L138.259 71.0328Z" fill="#A0616A"/>
<path d="M162.876 101.49C163.258 101.444 163.626 101.316 163.952 101.113C164.279 100.91 164.557 100.639 164.767 100.317C164.978 99.9953 165.115 99.6316 165.169 99.2513C165.223 98.8711 165.193 98.4836 165.081 98.1162L172.639 92.6196L168.089 90.9182L161.609 96.3987C161.004 96.6275 160.503 97.0702 160.202 97.6429C159.902 98.2157 159.822 98.8786 159.978 99.5062C160.134 100.134 160.516 100.682 161.05 101.048C161.584 101.414 162.234 101.571 162.876 101.49Z" fill="#A0616A"/>
<path d="M150.556 88.326C150.266 88.3257 149.977 88.2973 149.693 88.2411C149.006 88.1104 148.361 87.8129 147.816 87.3748C147.271 86.9367 146.842 86.3714 146.567 85.7287L141.535 79.6013C141.428 79.4718 141.351 79.321 141.307 79.1592C141.264 78.9973 141.256 78.8281 141.284 78.6628C141.311 78.4976 141.374 78.3401 141.467 78.2009C141.561 78.0618 141.683 77.9441 141.825 77.856L145.406 75.6429C145.538 75.5612 145.685 75.5064 145.838 75.4817C145.992 75.4571 146.149 75.463 146.3 75.4992C146.451 75.5354 146.594 75.6011 146.719 75.6926C146.845 75.7841 146.951 75.8995 147.032 76.0322L150.579 81.8672L157.371 76.8545C157.912 76.5714 158.537 76.492 159.131 76.6308C159.726 76.7697 160.251 77.1175 160.61 77.6107C160.969 78.104 161.138 78.7098 161.087 79.3174C161.036 79.925 160.767 80.4939 160.33 80.9202L153.551 87.0955C152.754 87.884 151.678 88.3263 150.556 88.326Z" fill="#313131"/>
<path d="M168.91 97.5412C168.901 97.5412 168.892 97.5412 168.883 97.5409C168.718 97.5369 168.555 97.4983 168.406 97.4277C168.257 97.357 168.124 97.2558 168.017 97.1307L164.833 93.4225C164.725 93.2962 164.645 93.1484 164.598 92.9888C164.551 92.8292 164.538 92.6615 164.561 92.4967C164.584 92.3319 164.641 92.1739 164.73 92.0329C164.818 91.892 164.936 91.7714 165.074 91.6792L171.035 87.7113L165.635 81.2287C165.321 80.7058 165.206 80.0875 165.31 79.4868C165.415 78.886 165.733 78.343 166.205 77.9568C166.678 77.5706 167.274 77.3671 167.884 77.3835C168.495 77.3998 169.079 77.635 169.53 78.0459L176.093 84.4501C176.609 84.9213 177.004 85.5106 177.242 86.1674C177.48 86.8242 177.555 87.529 177.461 88.2212C177.366 88.9133 177.105 89.5723 176.699 90.1414C176.293 90.7105 175.755 91.1728 175.131 91.4886L169.767 97.172C169.657 97.2885 169.524 97.3814 169.377 97.4448C169.23 97.5083 169.071 97.5411 168.91 97.5412Z" fill="#313131"/>
<path d="M161.599 83.8777C161.548 83.8777 161.497 83.8745 161.446 83.868C161.225 83.8411 161.015 83.7513 160.843 83.6092C160.671 83.4671 160.544 83.2786 160.476 83.0663L158.084 75.7433C158.024 75.5582 158.033 75.3576 158.11 75.1787C158.186 74.9999 158.325 74.8547 158.501 74.7702L158.578 74.7336C158.649 74.7002 158.718 74.6671 158.79 74.6355C159.905 74.119 161.119 73.8495 162.349 73.8457C163.945 73.8486 165.505 74.3169 166.839 75.193C167.017 75.3118 167.142 75.4959 167.186 75.7058C167.231 75.9156 167.19 76.1344 167.075 76.3149L162.587 83.3344C162.482 83.5011 162.336 83.6384 162.164 83.7334C161.991 83.8284 161.797 83.8781 161.599 83.8777Z" fill="#E6E6E6"/>
<path d="M170.614 60.7271C172.033 60.7271 173.183 59.5788 173.183 58.1624C173.183 56.7459 172.033 55.5977 170.614 55.5977C169.196 55.5977 168.046 56.7459 168.046 58.1624C168.046 59.5788 169.196 60.7271 170.614 60.7271Z" fill="#313131"/>
<path d="M161.81 55.3433C160.006 55.3433 158.275 56.0589 157 57.3328C155.724 58.6067 155.007 60.3345 155.007 62.136V65.0099H158.547L160.24 62.136L160.748 65.0099H171.49L168.612 62.136C168.612 60.3345 167.896 58.6067 166.62 57.3328C165.344 56.0589 163.614 55.3433 161.81 55.3433Z" fill="#313131"/>
<path d="M171.934 56.4057C172.218 55.5189 172.806 54.7604 173.595 54.2637C174.383 53.7669 175.322 53.5637 176.246 53.6898C177.883 53.963 179.177 55.2768 179.948 56.7442C180.719 58.2116 181.075 59.8538 181.594 61.428C182.112 63.0023 182.847 64.585 184.156 65.604C185.465 66.6231 187.473 66.8995 188.758 65.8512C188.611 66.9437 188.124 67.9624 187.366 68.7633C186.607 69.5643 185.616 70.1068 184.532 70.3142C183.448 70.5217 182.326 70.3835 181.324 69.9193C180.323 69.4551 179.493 68.6883 178.953 67.7274C178.274 66.5225 178.099 65.1104 177.898 63.7429C177.697 62.3754 177.436 60.9605 176.626 59.8396C175.816 58.7186 174.301 57.9864 173.015 58.497L171.934 56.4057Z" fill="#313131"/>
<path d="M88.4189 60.3182C86.0773 60.3179 83.8318 59.3889 82.1761 57.7356C80.5204 56.0822 79.5902 53.8398 79.5901 51.5017C79.59 49.907 79.5911 48.6878 79.5935 48.5144C79.6679 43.0523 81.0455 37.6866 83.612 32.8625C79.3953 38.6267 77.0768 45.557 76.9772 52.6945C76.9747 52.8679 76.9736 54.0872 76.9737 55.6819C76.9738 58.02 77.904 60.2624 79.5597 61.9157C81.2154 63.5691 83.4609 64.4981 85.8025 64.4984C87.7266 64.4976 89.5979 63.8698 91.132 62.7102C92.6662 61.5507 93.7794 59.9228 94.3025 58.0738C92.6859 59.5214 90.5903 60.3208 88.4189 60.3182Z" fill="#333E57"/>
<path d="M112.178 37.0844C114.885 37.2135 117.52 37.9967 119.857 39.3668C122.194 40.7368 124.163 42.6528 125.595 44.9502C127.027 47.2476 127.88 49.8577 128.079 52.5565C128.279 55.2553 127.819 57.9621 126.74 60.4445C128.301 58.6143 129.448 56.4696 130.103 54.1565C130.759 51.8435 130.907 49.4166 130.538 47.0412C130.168 44.6658 129.291 42.3978 127.964 40.3918C126.638 38.3859 124.894 36.6891 122.851 35.4172C120.808 34.1453 118.515 33.3282 116.127 33.0216C113.74 32.715 111.314 32.926 109.015 33.6404C106.717 34.3548 104.6 35.5557 102.808 37.1612C101.016 38.7667 99.5925 40.7391 98.6334 42.9439C100.291 40.9968 102.374 39.4559 104.723 38.44C107.071 37.4241 109.621 36.9603 112.178 37.0844Z" fill="#333E57"/>
<path d="M114.893 115.183C112.505 115.184 110.211 114.246 108.509 112.574C106.806 110.901 105.83 108.627 105.791 106.242C105.68 99.3301 105.623 90.814 105.623 89.8408C105.621 87.473 105.963 85.1175 106.636 82.8473L106.633 82.8466C107.031 81.7071 107.511 80.5981 108.07 79.5283C106.354 81.8128 104.987 84.3401 104.017 87.0267L104.02 87.0275C103.346 89.2977 103.005 91.6532 103.006 94.0209C103.006 94.9942 103.064 103.51 103.174 110.422C103.213 112.807 104.189 115.081 105.892 116.754C107.595 118.427 109.888 119.364 112.277 119.363C114.246 119.363 116.163 118.725 117.738 117.545C119.314 116.365 120.464 114.707 121.016 112.819C119.342 114.343 117.158 115.186 114.893 115.183Z" fill="#333E57"/>
<path d="M33.107 152.948L36.3144 152.947L37.8406 140.593L33.1062 140.593L33.107 152.948Z" fill="#FFB8B8"/>
<path d="M42.5006 155.921L32.4195 155.921L32.4193 152.032L38.6055 152.032C39.6385 152.032 40.6292 152.441 41.3597 153.171C42.0902 153.9 42.5006 154.889 42.5006 155.921L42.5006 155.921Z" fill="#313131"/>
<path d="M21.5948 152.948L24.8023 152.947L26.3284 140.593L21.5941 140.593L21.5948 152.948Z" fill="#FFB8B8"/>
<path d="M30.9885 155.921L20.9074 155.921L20.9072 152.032L27.0934 152.032C28.1264 152.032 29.1171 152.441 29.8476 153.171C30.5781 153.9 30.9885 154.889 30.9885 155.921L30.9885 155.921Z" fill="#313131"/>
<path d="M24.3978 149.148L21.2647 148.983C21.1032 148.975 20.9449 148.934 20.7991 148.864C20.6533 148.794 20.5228 148.696 20.4153 148.576C20.3078 148.455 20.2253 148.314 20.1727 148.161C20.12 148.008 20.0983 147.847 20.1087 147.686L23.8534 106.285L41.0983 110.931L42.7598 110.479L37.5641 147.13C37.5198 147.405 37.3827 147.658 37.1754 147.845C36.9681 148.032 36.7029 148.144 36.4238 148.16L33.0463 148.317C32.8774 148.327 32.7085 148.301 32.55 148.242C32.3916 148.183 32.2472 148.091 32.126 147.974C32.0047 147.856 31.9092 147.714 31.8455 147.558C31.7819 147.401 31.7514 147.233 31.7561 147.064L32.368 125.067C32.3709 124.966 32.3355 124.866 32.2688 124.789C32.2022 124.713 32.109 124.663 32.0078 124.651C31.9066 124.64 31.8046 124.666 31.722 124.726C31.6393 124.785 31.582 124.874 31.5613 124.973L25.6596 148.176C25.6039 148.452 25.4543 148.699 25.2363 148.877C25.0183 149.054 24.7454 149.151 24.4641 149.15C24.4422 149.15 24.4201 149.149 24.3978 149.148Z" fill="#313131"/>
<path d="M33.6829 72.4099C37.232 72.4099 40.109 69.5369 40.109 65.993C40.109 62.4491 37.232 59.5762 33.6829 59.5762C30.1339 59.5762 27.2568 62.4491 27.2568 65.993C27.2568 69.5369 30.1339 72.4099 33.6829 72.4099Z" fill="#FFB8B8"/>
<path d="M22.9836 84.8452L23.6901 100.068L23.9456 105.607C23.9557 105.848 24.0377 106.08 24.181 106.275C24.3243 106.469 24.5224 106.616 24.7499 106.697L41.3211 112.692C41.455 112.741 41.5968 112.766 41.7396 112.765C41.9028 112.766 42.0645 112.734 42.2151 112.671C42.3656 112.608 42.5019 112.515 42.6158 112.398C42.7297 112.282 42.8188 112.143 42.8779 111.991C42.937 111.839 42.9649 111.677 42.9598 111.514L42.2804 84.1424C42.2358 81.8968 41.4079 79.737 39.9396 78.0354C38.4712 76.3339 36.4543 75.1972 34.2367 74.8214C34.0764 74.797 33.9133 74.7726 33.7502 74.7508C32.3751 74.5804 30.9792 74.7129 29.6609 75.1391C28.3426 75.5652 27.1338 76.2747 26.1195 77.2175C25.0693 78.182 24.2441 79.3651 23.7022 80.6832C23.1603 82.0012 22.915 83.4221 22.9835 84.8452L22.9836 84.8452Z" fill="#CCCCCC"/>
<path d="M49.2371 109.654C48.8451 109.533 48.487 109.322 48.1914 109.037C47.8957 108.753 47.6707 108.404 47.5342 108.017C47.3978 107.631 47.3537 107.218 47.4054 106.811C47.4572 106.405 47.6034 106.016 47.8324 105.676L42.2129 98.2145L47.0622 97.9148L51.6551 105.046C52.1468 105.426 52.4889 105.966 52.6215 106.573C52.7541 107.179 52.6687 107.813 52.3802 108.362C52.0917 108.912 51.6186 109.343 51.0439 109.579C50.4692 109.815 49.8295 109.842 49.2371 109.654H49.2371Z" fill="#FFB8B8"/>
<path d="M45.286 104.326C45.1371 104.265 45.0017 104.176 44.8875 104.063C44.7734 103.95 44.6829 103.816 44.6211 103.668L36.1549 83.526C35.9888 83.1317 35.9021 82.7085 35.8999 82.2807C35.8976 81.8529 35.9798 81.4288 36.1418 81.0327C36.3037 80.6366 36.5422 80.2763 36.8437 79.9723C37.1452 79.6683 37.5037 79.4266 37.8987 79.2611C38.2938 79.0955 38.7177 79.0093 39.1461 79.0074C39.5745 79.0054 39.9992 79.0878 40.3957 79.2499C40.7922 79.4119 41.1529 79.6503 41.4571 79.9516C41.7613 80.2529 42.003 80.6111 42.1685 81.0057L50.6347 101.148C50.7598 101.446 50.7612 101.782 50.6386 102.082C50.5159 102.382 50.2793 102.62 49.9805 102.746L46.2219 104.321C46.074 104.384 45.9151 104.416 45.7544 104.417C45.5937 104.418 45.4345 104.387 45.2859 104.326L45.286 104.326Z" fill="#CCCCCC"/>
<path d="M31.617 103.615L39.7485 88.0677C39.9054 87.7687 40.1745 87.5441 40.497 87.443C40.8195 87.3419 41.169 87.3727 41.4688 87.5287L53.2717 93.684C53.5712 93.8406 53.7962 94.1094 53.8974 94.4314C53.9986 94.7534 53.9677 95.1024 53.8116 95.4018L45.6801 110.949C45.5232 111.248 45.2541 111.473 44.9316 111.574C44.6091 111.675 44.2596 111.644 43.9598 111.488L32.1569 105.333C31.8574 105.176 31.6324 104.907 31.5312 104.585C31.43 104.263 31.4609 103.914 31.617 103.615Z" fill="#333E57"/>
<path d="M37.0702 96.5123C36.9256 96.1288 36.6933 95.7843 36.3917 95.5064C36.0902 95.2285 35.7277 95.0248 35.3333 94.9116C34.9389 94.7984 34.5235 94.7788 34.1201 94.8544C33.7168 94.93 33.3368 95.0987 33.0103 95.347L25.2191 90.186L25.2059 95.0376L32.6066 99.1947C33.0151 99.6624 33.5755 99.9716 34.1895 100.068C34.8034 100.164 35.4318 100.042 35.9643 99.7217C36.4968 99.4017 36.8995 98.9047 37.1017 98.3178C37.3039 97.731 37.2928 97.0918 37.0702 96.5123Z" fill="#FFB8B8"/>
<path d="M27.2195 97.6029L20.8521 92.5664C20.1632 92.3355 19.5408 91.941 19.0382 91.417C18.5357 90.893 18.1679 90.255 17.9666 89.5578C17.7654 88.8606 17.7365 88.1251 17.8825 87.4143C18.0286 86.7035 18.3452 86.0388 18.8052 85.4771L24.5866 77.9111C24.9884 77.4208 25.5534 77.0913 26.1784 76.9828C26.8035 76.8743 27.4467 76.9941 27.9906 77.3201C28.5345 77.6462 28.9427 78.1568 29.1406 78.7587C29.3385 79.3605 29.3129 80.0134 29.0684 80.598L24.494 88.07L31.2165 91.254C31.3728 91.328 31.5116 91.4343 31.6238 91.5659C31.7359 91.6975 31.8188 91.8513 31.867 92.0172C31.9151 92.1832 31.9275 92.3574 31.9032 92.5285C31.879 92.6995 31.8186 92.8635 31.7262 93.0095L29.0126 97.2979C28.9208 97.4426 28.7997 97.5665 28.6569 97.6615C28.5142 97.7565 28.3531 97.8206 28.184 97.8494C28.1773 97.8506 28.1706 97.8517 28.1638 97.8527C27.9977 97.8777 27.8282 97.8685 27.6657 97.8255C27.5033 97.7826 27.3514 97.7068 27.2195 97.6029Z" fill="#CCCCCC"/>
<path d="M28.8271 70.29C28.7996 70.2094 28.7908 70.1236 28.8016 70.0392C28.8123 69.9548 28.8423 69.8739 28.8892 69.8028C28.936 69.7317 28.9986 69.6723 29.072 69.6291C29.1455 69.5858 29.2278 69.56 29.3128 69.5535C29.4869 69.5629 29.6572 69.6075 29.8135 69.6845C29.9698 69.7615 30.1089 69.8693 30.2223 70.0015C30.4549 70.2693 30.7256 70.5014 31.0258 70.6905C31.3367 70.847 31.7583 70.8247 31.9355 70.5264C32.1019 70.2462 31.9879 69.8711 31.8872 69.5457C31.6308 68.7179 31.4874 67.8593 31.4607 66.9932C31.4317 66.0264 31.5683 65.0175 32.1043 64.2635C32.796 63.2904 34.0329 62.9209 35.2035 62.9477C36.3741 62.9745 37.5257 63.3353 38.6852 63.5634C39.0855 63.6422 39.556 63.6824 39.8237 63.3726C40.1084 63.0432 40.0038 62.5101 39.8827 62.0654C39.5685 60.9113 39.2352 59.718 38.5051 58.7859C37.7158 57.8174 36.5882 57.1835 35.3496 57.0119C34.1604 56.8648 32.9532 57.0017 31.8273 57.4112C29.9929 57.9886 28.3788 59.1114 27.2008 60.6296C25.9864 62.2441 25.4617 64.2731 25.7413 66.2729C26.0145 68.0146 26.9388 69.5882 28.3278 70.6764L28.8271 70.29Z" fill="#313131"/>
<path d="M110.216 152.998C108.507 152.255 106.993 151.125 105.796 149.697C104.599 148.269 103.75 146.584 103.317 144.772C102.884 142.961 102.878 141.074 103.3 139.26C103.723 137.447 104.561 135.756 105.75 134.321C104.372 135.326 103.223 136.612 102.381 138.094C101.538 139.576 101.021 141.22 100.864 142.917C100.706 144.614 100.912 146.325 101.467 147.936C102.022 149.548 102.914 151.023 104.084 152.264C105.254 153.505 106.675 154.483 108.252 155.134C109.829 155.784 111.527 156.092 113.233 156.038C114.939 155.983 116.613 155.567 118.146 154.816C119.678 154.066 121.033 152.999 122.121 151.686C120.424 152.924 118.432 153.696 116.344 153.927C114.255 154.157 112.143 153.837 110.216 152.998Z" fill="#333E57"/>
</svg>
