<svg width="38" height="38" viewBox="0 0 38 38" fill="none" xmlns="http://www.w3.org/2000/svg">
<circle cx="19.0005" cy="19" r="19" fill="#F79D31"/>
<path d="M16.3213 21L27.3213 10" stroke="white" stroke-width="1.5" stroke-linecap="round" stroke-linejoin="round"/>
<path d="M27.3214 10L20.8214 28C20.7775 28.0957 20.707 28.1769 20.6184 28.2338C20.5298 28.2906 20.4267 28.3209 20.3214 28.3209C20.216 28.3209 20.1129 28.2906 20.0243 28.2338C19.9357 28.1769 19.8652 28.0957 19.8214 28L16.3214 21L9.32136 17.5C9.22562 17.4561 9.14449 17.3857 9.08761 17.2971C9.03073 17.2084 9.00049 17.1053 9.00049 17C9.00049 16.8947 9.03073 16.7916 9.08761 16.7029C9.14449 16.6143 9.22562 16.5439 9.32136 16.5L27.3214 10Z" stroke="white" stroke-width="1.5" stroke-linecap="round" stroke-linejoin="round"/>
</svg>
