<svg width="174" height="218" viewBox="0 0 174 218" fill="none" xmlns="http://www.w3.org/2000/svg">
<path d="M135.647 93.9421C143.698 97.0777 147.805 106.153 144.587 114.415L112.983 195.562C109.737 203.898 100.603 207.732 92.5517 204.596C90.8853 208.875 86.175 210.609 82.0004 208.983C78.2731 207.531 75.7525 202.981 77.4189 198.702L32.6913 181.283C31.025 185.561 26.091 187.208 22.3637 185.756C18.1891 184.131 15.8922 179.668 17.5585 175.389C9.50757 172.253 5.37254 163.252 8.61909 154.916L40.2226 73.7694C43.4404 65.5072 52.6033 61.5994 60.6543 64.735L75.7871 70.6287L95.8984 18.9901C97.5648 14.7115 102.201 12.9487 106.226 14.5165L136.044 26.1296C140.07 27.6974 142.292 32.1312 140.626 36.4099L120.515 88.0484L135.647 93.9421ZM107.08 23.345L86.969 74.9836L109.333 83.6935L129.444 32.0549L107.08 23.345ZM100.365 194.895L134.842 106.372L52.841 74.4358L18.3644 162.959" fill="#EBDEFE"/>
<path d="M63.115 130.061L58.279 132.403L54.7407 141.488L48.1888 138.937L60.5731 107.138L67.125 109.69L61.5112 124.104L65.9336 121.274L78.1103 113.968L86.1692 117.107L69.3749 126.84L74.1124 149.033L66.3156 145.996L63.115 130.061ZM79.0393 137.143C80.4512 133.518 82.4472 130.933 85.0271 129.389C87.6217 127.851 90.3822 127.652 93.3087 128.791C95.9003 129.801 97.5709 131.474 98.3206 133.812L99.4502 131.686L105.172 133.915L96.2752 156.759C95.47 158.826 94.2965 160.44 92.7547 161.601C91.2275 162.766 89.4562 163.418 87.4408 163.555C85.4254 163.693 83.2748 163.316 80.9889 162.426C79.2563 161.751 77.7035 160.744 76.3304 159.404C74.9517 158.079 74.0527 156.706 73.6336 155.285L77.926 152.53C78.8124 154.904 80.3766 156.528 82.6188 157.401C84.2932 158.054 85.7721 158.11 87.0555 157.57C88.3332 157.045 89.2924 155.959 89.9332 154.314L90.4265 153.047C88.3298 154.126 86.0948 154.203 83.7216 153.278C80.8824 152.173 79.0129 150.17 78.1131 147.271C77.2335 144.363 77.5082 141.074 78.9372 137.405L79.0393 137.143ZM85.1723 140.06C84.3387 142.2 84.1133 144.049 84.496 145.607C84.8844 147.15 85.8284 148.213 87.328 148.797C89.2499 149.546 90.9065 149.361 92.2978 148.243L96.1679 138.306C95.8848 136.535 94.8042 135.285 92.926 134.553C91.4118 133.963 89.9769 134.117 88.6213 135.014C87.2803 135.917 86.1306 137.599 85.1723 140.06Z" fill="#EBDEFE"/>
</svg>
