<svg width="37" height="25" viewBox="0 0 37 25" fill="none" xmlns="http://www.w3.org/2000/svg">
<rect x="0.5" y="0.5" width="35.3915" height="23.6722" rx="2.5" fill="white" stroke="#C4C4C4"/>
<path d="M18.4171 10.5566C18.3995 11.9314 19.6535 12.6985 20.5981 13.1547C21.5686 13.6226 21.8946 13.9227 21.8907 14.3413C21.8835 14.9818 21.1166 15.2645 20.3989 15.2754C19.1469 15.2947 18.4189 14.9405 17.8402 14.6726L17.3891 16.764C17.9698 17.0291 19.045 17.2604 20.1599 17.2705C22.7771 17.2705 24.4894 15.9903 24.4987 14.0054C24.5089 11.4862 20.9824 11.3468 21.0065 10.2208C21.0148 9.87935 21.3436 9.515 22.064 9.42236C22.4206 9.37557 23.4049 9.33975 24.5209 9.84902L24.959 7.82554C24.3588 7.60898 23.5874 7.40162 22.627 7.40162C20.1637 7.40162 18.4311 8.69928 18.4171 10.5566ZM29.1679 7.57591C28.69 7.57591 28.2873 7.85216 28.1076 8.27608L24.369 17.1219H26.9843L27.5047 15.6966H30.7006L31.0025 17.1219H33.3075L31.296 7.57591H29.1679ZM29.5338 10.1546L30.2886 13.7393H28.2215L29.5338 10.1546ZM15.2462 7.57603L13.1847 17.1218H15.6769L17.7374 7.5758H15.2462V7.57603ZM11.5595 7.5758L8.96552 14.0733L7.91622 8.54874C7.79311 7.93202 7.30689 7.57591 6.76694 7.57591H2.52665L2.46725 7.85311C3.33777 8.0403 4.32683 8.34221 4.92604 8.66525C5.29275 8.86259 5.39732 9.03509 5.51779 9.50402L7.50518 17.1219H10.1388L14.1764 7.57591H11.5595" fill="url(#paint0_linear_142_844)"/>
<defs>
<linearGradient id="paint0_linear_142_844" x1="16.6458" y1="17.4685" x2="16.9288" y2="7.33284" gradientUnits="userSpaceOnUse">
<stop stop-color="#222357"/>
<stop offset="1" stop-color="#254AA5"/>
</linearGradient>
</defs>
</svg>
