<svg width="34" height="34" viewBox="0 0 34 34" fill="none" xmlns="http://www.w3.org/2000/svg">
<path d="M3.1344 32.9374C1.38128 32.9374 0.584401 31.6624 1.38128 30.1218L15.5656 2.23115C16.3625 0.690527 17.6375 0.690527 18.4344 2.23115L32.6188 30.1218C33.4156 31.6624 32.6188 32.9374 30.8656 32.9374H3.1344Z" fill="#FFCE31"/>
<path d="M14.7688 12.5377L16.2563 22.3658C16.4157 23.3221 17.6375 23.3221 17.7969 22.3658L19.2313 12.5377C19.4969 8.7127 14.5032 8.7127 14.7688 12.5377" fill="#231F20"/>
<path d="M17 28.5816C18.2323 28.5816 19.2313 27.5827 19.2313 26.3504C19.2313 25.1181 18.2323 24.1191 17 24.1191C15.7678 24.1191 14.7688 25.1181 14.7688 26.3504C14.7688 27.5827 15.7678 28.5816 17 28.5816Z" fill="#231F20"/>
</svg>
