<svg width="20" height="20" viewBox="0 0 20 20" fill="none" xmlns="http://www.w3.org/2000/svg">
<path d="M17.6888 0C17.8998 0.0602924 18.118 0.101205 18.3204 0.18303C19.9706 0.849117 20.4328 2.88973 19.232 4.21975C18.1726 5.3933 17.1017 6.55608 16.0358 7.72317C14.1804 9.75516 12.3264 11.7893 10.4638 13.8149C10.3145 13.9771 10.1185 14.1156 9.91827 14.2068C8.98373 14.631 8.0413 15.0379 7.0996 15.4449C6.54333 15.6854 6.01864 15.5755 5.64971 15.1427C5.34825 14.7889 5.30518 14.379 5.44514 13.9505C5.77603 12.9385 6.11267 11.9271 6.45863 10.9201C6.51175 10.7651 6.60793 10.6136 6.71846 10.4923C9.62829 7.29969 12.5439 4.1128 15.4551 0.920894C15.8915 0.442144 16.404 0.118431 17.0529 0.0279928C17.0708 0.0258395 17.0866 0.0100483 17.1031 0.000717372C17.2983 -3.94265e-07 17.4936 0 17.6888 0ZM10.42 11.3185C10.4817 11.2524 10.5305 11.2015 10.5779 11.1498C12.8245 8.69072 15.0704 6.23093 17.3163 3.77186C17.5488 3.51706 17.7893 3.26943 18.0089 3.00385C18.2867 2.66794 18.2451 2.22508 17.9285 1.93438C17.6134 1.64512 17.1699 1.64943 16.8548 1.94874C16.7701 2.02913 16.6925 2.11813 16.6136 2.20426C14.8673 4.11567 13.1209 6.02708 11.3753 7.93921C10.6734 8.70722 9.9721 9.47595 9.25936 10.2576C9.64192 10.6072 10.0202 10.9524 10.42 11.3185ZM7.4312 13.4258C8.07719 13.1416 8.66648 12.8825 9.2852 12.6097C8.86961 12.23 8.48776 11.8819 8.07432 11.5044C7.85827 12.1511 7.65371 12.7619 7.4312 13.4258Z" fill="#F79D31"/>
<path d="M9.10865 19.9941C7.39749 19.9941 5.68562 20.0099 3.97447 19.9898C2.30351 19.9704 1.08904 19.1916 0.353334 17.6893C0.10068 17.1733 0.00306373 16.6156 0.00306373 16.0428C0.0016282 12.6262 -0.00411402 9.21037 0.00521695 5.7938C0.0102413 3.90249 1.22973 2.3801 3.07295 1.94944C3.38016 1.87767 3.70459 1.85111 4.0204 1.85039C6.45435 1.8425 8.88758 1.84537 11.3215 1.8468C11.9424 1.8468 12.335 2.22291 12.302 2.77631C12.2776 3.184 11.9474 3.52279 11.539 3.55724C11.4421 3.56514 11.3438 3.56585 11.2462 3.56585C8.83877 3.56657 6.43066 3.56514 4.02327 3.56657C3.0708 3.56729 2.34585 3.96996 1.93888 4.83989C1.80322 5.12987 1.73145 5.47798 1.73001 5.79954C1.71565 9.21611 1.71709 12.632 1.72283 16.0485C1.72499 17.319 2.68105 18.2729 3.94791 18.2743C7.39678 18.2786 10.8456 18.2786 14.2945 18.2743C15.5599 18.2729 16.5124 17.314 16.5146 16.0442C16.5196 13.6562 16.5153 11.2675 16.5167 8.87948C16.5167 8.42729 16.7256 8.10644 17.096 7.98083C17.6185 7.80283 18.1575 8.14736 18.2272 8.70363C18.235 8.76822 18.235 8.83354 18.235 8.89814C18.2358 11.2732 18.2458 13.6483 18.2315 16.0234C18.2228 17.5271 17.5647 18.6849 16.2748 19.4665C15.654 19.8434 14.9671 19.9955 14.2435 19.9948C12.531 19.9927 10.8198 19.9941 9.10865 19.9941Z" fill="#F79D31"/>
</svg>
